<svg width="64" height="64" viewBox="0 0 64 64" fill="none" xmlns="http://www.w3.org/2000/svg">
<g clip-path="url(#clip0_2_10)">
<path d="M63.563 60.924C63.566 60.891 63.584 60.863 63.584 60.83C63.584 60.56 63.464 60.29 63.264 60.1L63.184 60.02L63.163 60.01L60.93 57.935C60.7348 57.7604 60.4788 57.6694 60.2172 57.6815C59.9555 57.6937 59.7091 57.808 59.5308 57.9998C59.3526 58.1917 59.2567 58.4459 59.2638 58.7077C59.271 58.9695 59.3806 59.2181 59.569 59.4L60.032 59.831H56.984V41.481C56.984 40.921 56.534 40.481 55.984 40.481H51.564C51.004 40.481 50.564 40.921 50.564 41.481V59.831H46.914V45.171C46.914 44.611 46.464 44.171 45.914 44.171H41.494C40.934 44.171 40.494 44.611 40.494 45.171V59.831H36.844V50.701C36.844 50.151 36.394 49.701 35.844 49.701H31.414C30.864 49.701 30.414 50.151 30.414 50.701V59.831H26.774V47.011C26.774 46.461 26.324 46.011 25.774 46.011H21.344C20.794 46.011 20.344 46.461 20.344 47.011V59.831H16.694V54.391C16.694 53.841 16.254 53.391 15.694 53.391H11.274C10.724 53.391 10.274 53.841 10.274 54.391V59.831H4.584V5.313L5.017 5.779C5.10643 5.87519 5.21393 5.95283 5.33337 6.00747C5.4528 6.06212 5.58183 6.09271 5.71309 6.09749C5.84434 6.10227 5.97525 6.08116 6.09835 6.03535C6.22144 5.98954 6.33431 5.91993 6.4305 5.8305C6.5267 5.74107 6.60433 5.63357 6.65898 5.51413C6.71363 5.3947 6.74422 5.26567 6.749 5.13441C6.75378 5.00316 6.73266 4.87225 6.68685 4.74915C6.64104 4.62606 6.57143 4.51319 6.482 4.417L4.314 2.085C4.305 2.074 4.29 2.071 4.279 2.061C4.24023 2.0236 4.19842 1.98948 4.154 1.959C4.124 1.929 4.084 1.909 4.044 1.889C4.034 1.879 4.024 1.879 4.014 1.879L4.01 1.878C3.977 1.862 3.942 1.854 3.906 1.842C3.888 1.837 3.867 1.829 3.854 1.829C3.804 1.819 3.774 1.809 3.724 1.799C3.714 1.799 3.704 1.799 3.694 1.789C3.654 1.779 3.624 1.769 3.584 1.769C3.574 1.769 3.554 1.769 3.534 1.779C3.426 1.785 3.324 1.811 3.225 1.848C3.186 1.862 3.153 1.884 3.115 1.903C3.079 1.923 3.039 1.935 3.004 1.959C2.96669 1.98952 2.93034 2.0212 2.895 2.054C2.882 2.067 2.862 2.071 2.85 2.085L0.683003 4.417C0.593573 4.51319 0.523965 4.62606 0.478154 4.74915C0.432343 4.87225 0.411225 5.00316 0.416007 5.13441C0.425666 5.3995 0.540232 5.64988 0.734503 5.8305C0.928774 6.01111 1.18684 6.10715 1.45192 6.09749C1.717 6.08783 1.96739 5.97327 2.148 5.779L2.585 5.309V60.83C2.585 61.38 3.035 61.83 3.585 61.83H11.175C11.205 61.84 11.245 61.84 11.275 61.84C11.305 61.84 11.345 61.84 11.375 61.83H15.595C15.625 61.84 15.665 61.84 15.695 61.84C15.735 61.84 15.765 61.84 15.795 61.83H21.245C21.275 61.84 21.315 61.84 21.345 61.84C21.375 61.84 21.415 61.84 21.445 61.83H25.675C25.705 61.84 25.735 61.84 25.775 61.84C25.805 61.84 25.845 61.84 25.875 61.83H31.315C31.345 61.84 31.385 61.84 31.415 61.84C31.455 61.84 31.485 61.84 31.515 61.83H35.745C35.775 61.84 35.815 61.84 35.845 61.84C35.875 61.84 35.915 61.84 35.945 61.83H41.395C41.425 61.84 41.455 61.84 41.495 61.84C41.525 61.84 41.565 61.84 41.595 61.83H45.815C45.845 61.84 45.875 61.84 45.915 61.84C45.945 61.84 45.985 61.84 46.015 61.83H51.465C51.495 61.84 51.535 61.84 51.565 61.84C51.595 61.84 51.635 61.84 51.665 61.83H55.885C55.915 61.84 55.955 61.84 55.985 61.84C56.015 61.84 56.055 61.84 56.085 61.83H60.042L59.57 62.269C59.4688 62.357 59.3864 62.4645 59.3275 62.585C59.2687 62.7055 59.2348 62.8366 59.2277 62.9706C59.2206 63.1045 59.2405 63.2385 59.2862 63.3645C59.3319 63.4906 59.4025 63.6062 59.4939 63.7044C59.5852 63.8026 59.6953 63.8815 59.8177 63.9363C59.9401 63.9911 60.0723 64.0207 60.2064 64.0233C60.3405 64.026 60.4737 64.0017 60.5982 63.9518C60.7227 63.9019 60.8359 63.8275 60.931 63.733L63.25 61.578C63.254 61.574 63.261 61.573 63.265 61.569C63.35 61.4839 63.419 61.3844 63.469 61.275C63.5223 61.165 63.5542 61.0459 63.563 60.924V60.924Z" fill="#9CD1EC"/>
<path d="M13.834 42.369C15.574 42.369 16.994 40.949 16.994 39.209C16.994 38.489 16.754 37.829 16.344 37.299L22.044 30.449C22.494 30.699 23.004 30.839 23.554 30.839C24.314 30.839 25.014 30.579 25.554 30.129L30.544 35.419C30.494 35.649 30.464 35.889 30.464 36.139C30.464 37.889 31.884 39.309 33.634 39.309C35.374 39.309 36.794 37.889 36.794 36.139C36.794 35.709 36.704 35.299 36.554 34.919L42.164 27.459C42.6618 27.7438 43.2287 27.8853 43.802 27.8678C44.3752 27.8503 44.9324 27.6746 45.412 27.36L51.062 32.353C50.7583 32.8406 50.5995 33.4046 50.604 33.979C50.604 35.729 52.024 37.139 53.774 37.139C54.6121 37.139 55.4158 36.8061 56.0084 36.2135C56.6011 35.6208 56.934 34.8171 56.934 33.979C56.934 32.239 55.514 30.819 53.774 30.819C53.355 30.819 52.976 30.899 52.607 31.048L46.665 25.798C46.795 25.458 46.865 25.089 46.865 24.709C46.865 22.959 45.445 21.539 43.705 21.539C41.955 21.539 40.535 22.959 40.535 24.709C40.535 25.149 40.625 25.569 40.795 25.949L35.195 33.399C34.722 33.1218 34.1832 32.9767 33.635 32.979C32.885 32.979 32.195 33.239 31.655 33.669L26.645 28.389C26.7516 27.9245 26.752 27.4419 26.6464 26.9771C26.5407 26.5123 26.3317 26.0774 26.0348 25.7046C25.7378 25.3317 25.3607 25.0306 24.9314 24.8236C24.5021 24.6167 24.0316 24.5091 23.555 24.509C21.815 24.509 20.395 25.929 20.395 27.679C20.395 28.139 20.495 28.569 20.675 28.959L14.695 36.169C14.2245 36.0347 13.7292 36.0114 13.2482 36.101C12.7671 36.1905 12.3134 36.3905 11.9228 36.6852C11.5321 36.9799 11.2152 37.3612 10.997 37.7991C10.7787 38.2371 10.6651 38.7197 10.665 39.209C10.6668 40.0481 11.0016 40.8521 11.5958 41.4446C12.1899 42.0371 12.9949 42.3695 13.834 42.369V42.369Z" fill="#9CD1EC"/>
<path d="M40.964 7.81899C40.974 7.66899 40.984 7.50899 40.984 7.35899C40.984 5.61899 40.304 3.93899 39.044 2.58899C38.2791 1.77174 37.3546 1.12019 36.3277 0.674682C35.3008 0.229177 34.1934 -0.000798247 33.074 -0.00100708C30.944 -0.00100708 28.954 0.828993 27.454 2.33899C26.7247 3.06599 26.1481 3.93153 25.7583 4.88466C25.3685 5.83779 25.1732 6.85927 25.184 7.88899C25.214 12.309 30.924 20.409 33.064 23.289C35.144 20.419 40.654 12.409 40.964 7.81899V7.81899ZM27.764 7.03899C27.764 4.10899 30.154 1.71899 33.084 1.71899C36.014 1.71899 38.394 4.10899 38.394 7.03899C38.394 9.96899 36.014 12.349 33.084 12.349C30.154 12.349 27.764 9.96899 27.764 7.03899V7.03899Z" fill="#EF6183"/>
<path d="M36.394 7.03899C36.394 5.20899 34.914 3.71899 33.084 3.71899C31.254 3.71899 29.764 5.20899 29.764 7.03899C29.7853 7.90409 30.1438 8.72661 30.7632 9.33095C31.3826 9.93528 32.2136 10.2736 33.079 10.2736C33.9444 10.2736 34.7754 9.93528 35.3948 9.33095C36.0142 8.72661 36.3728 7.90409 36.394 7.03899Z" fill="#EF6183"/>
</g>
<defs>
<clipPath id="clip0_2_10">
<rect width="64" height="64" fill="white"/>
</clipPath>
</defs>
</svg>
