<svg xmlns="http://www.w3.org/2000/svg" xmlns:xlink="http://www.w3.org/1999/xlink" viewBox="0 0 500 500"><defs><linearGradient id="linear-gradient" x1="361.42" y1="74.56" x2="302.83" y2="171.71" gradientUnits="userSpaceOnUse"><stop offset="0" stop-color="#ffe30b"/><stop offset="1" stop-color="#ff712f"/></linearGradient><linearGradient id="linear-gradient-2" x1="287.05" y1="112.78" x2="351.56" y2="175.81" gradientTransform="rotate(89.84 317.72 142.738)" xlink:href="#linear-gradient"/><linearGradient id="linear-gradient-3" x1="361.42" y1="63.44" x2="302.83" y2="160.58" xlink:href="#linear-gradient"/><linearGradient id="linear-gradient-4" x1="287.05" y1="101.66" x2="351.56" y2="164.69" gradientTransform="rotate(89.84 317.716 131.612)" xlink:href="#linear-gradient"/><linearGradient id="linear-gradient-5" x1="361.42" y1="52.31" x2="302.83" y2="149.46" xlink:href="#linear-gradient"/><linearGradient id="linear-gradient-6" x1="296.19" y1="102.16" x2="371.09" y2="165.94" gradientTransform="rotate(89.84 317.716 120.491)" xlink:href="#linear-gradient"/><linearGradient id="linear-gradient-7" x1="407.19" y1="86.58" x2="348.61" y2="183.72" xlink:href="#linear-gradient"/><linearGradient id="linear-gradient-8" x1="332.82" y1="124.79" x2="397.34" y2="187.83" xlink:href="#linear-gradient"/><linearGradient id="linear-gradient-9" x1="407.19" y1="75.45" x2="348.61" y2="172.6" xlink:href="#linear-gradient"/><linearGradient id="linear-gradient-10" x1="332.82" y1="113.67" x2="397.34" y2="176.7" xlink:href="#linear-gradient"/><linearGradient id="linear-gradient-11" x1="407.19" y1="64.33" x2="348.61" y2="161.47" xlink:href="#linear-gradient"/><linearGradient id="linear-gradient-12" x1="329.31" y1="101.07" x2="412.36" y2="177.45" gradientTransform="rotate(89.84 363.493 132.502)" xlink:href="#linear-gradient"/><linearGradient id="linear-gradient-13" x1="223.68" y1="125.3" x2="240.22" y2="296.41" gradientUnits="userSpaceOnUse"><stop offset="0" stop-color="#0763bd"/><stop offset="1" stop-color="#172a7c"/></linearGradient><linearGradient id="linear-gradient-14" x1="157.95" y1="173.32" x2="326.09" y2="324.47" gradientUnits="userSpaceOnUse"><stop offset=".04" stop-color="#e3ebff"/><stop offset="1" stop-color="#978ef0"/></linearGradient><linearGradient id="linear-gradient-15" x1="177.23" y1="188.43" x2="258.55" y2="263.25" xlink:href="#linear-gradient-14"/><linearGradient id="linear-gradient-16" x1="60.4" y1="164.68" x2="186.31" y2="164.68" xlink:href="#linear-gradient-14"/><linearGradient id="linear-gradient-17" x1="101.11" y1="197.87" x2="195.68" y2="197.87" xlink:href="#linear-gradient-14"/><linearGradient id="linear-gradient-18" x1="102.37" y1="161.82" x2="171.12" y2="230.57" xlink:href="#linear-gradient-13"/><linearGradient id="linear-gradient-19" x1="126.24" y1="137.95" x2="194.99" y2="206.7" xlink:href="#linear-gradient-13"/><linearGradient id="linear-gradient-20" x1="51.36" y1="157.29" x2="128.97" y2="234.91" xlink:href="#linear-gradient-14"/><linearGradient id="linear-gradient-21" x1="61.27" y1="-21.9" x2="84.59" y2="1.42" gradientTransform="matrix(.87 -.5 0 1.15 75.47 253.69)" xlink:href="#linear-gradient"/><linearGradient id="linear-gradient-22" x1="65.23" y1="-26.56" x2="88.94" y2="-2.86" gradientTransform="matrix(.87 -.5 0 1.15 75.47 253.69)" xlink:href="#linear-gradient"/><linearGradient id="linear-gradient-23" x1="69.57" y1="-30.77" x2="92.9" y2="-7.44" gradientTransform="matrix(.87 -.5 0 1.15 75.47 253.69)" xlink:href="#linear-gradient"/><linearGradient id="linear-gradient-24" x1="70.55" y1="-36.12" x2="96.26" y2="-10.41" gradientTransform="matrix(.87 -.5 0 1.15 75.47 253.69)" xlink:href="#linear-gradient"/><linearGradient id="linear-gradient-25" x1="60" y1="-17.21" x2="83.87" y2="6.66" gradientTransform="matrix(.87 -.5 0 1.15 75.47 253.69)" xlink:href="#linear-gradient"/><linearGradient id="linear-gradient-26" x1="65.34" y1="-22.31" x2="88.44" y2=".78" gradientTransform="matrix(.87 -.5 0 1.15 75.47 253.69)" xlink:href="#linear-gradient"/><linearGradient id="linear-gradient-27" x1="70.94" y1="-28.72" x2="94.37" y2="-5.29" gradientTransform="matrix(.87 -.5 0 1.15 75.47 253.69)" xlink:href="#linear-gradient"/><linearGradient id="linear-gradient-28" x1="64.2" y1="-19.15" x2="88.9" y2="5.55" gradientTransform="matrix(.87 -.5 0 1.15 75.47 253.69)" xlink:href="#linear-gradient"/><linearGradient id="linear-gradient-29" x1="69.67" y1="-23.15" x2="92.75" y2="-.06" gradientTransform="matrix(.87 -.5 0 1.15 75.47 253.69)" xlink:href="#linear-gradient"/><linearGradient id="linear-gradient-30" x1="61.41" y1="-14.66" x2="84.69" y2="8.62" gradientTransform="matrix(.87 -.5 0 1.15 75.47 253.69)" xlink:href="#linear-gradient"/><linearGradient id="linear-gradient-31" x1="64.51" y1="-13.91" x2="87.43" y2="9.01" gradientTransform="matrix(.87 -.5 0 1.15 75.47 253.69)" xlink:href="#linear-gradient"/><linearGradient id="linear-gradient-32" x1="71.24" y1="-22.14" x2="94.93" y2="1.56" gradientTransform="matrix(.87 -.5 0 1.15 75.47 253.69)" xlink:href="#linear-gradient"/><linearGradient id="linear-gradient-33" x1="101.45" y1="-34.61" x2="104.82" y2="-32.06" gradientTransform="matrix(.87 -.5 0 1.15 80.31 273.56)" xlink:href="#linear-gradient"/><linearGradient id="linear-gradient-34" x1="105.65" y1="-34.61" x2="109.02" y2="-32.06" gradientTransform="matrix(.87 -.5 0 1.15 80.31 273.56)" xlink:href="#linear-gradient"/><linearGradient id="linear-gradient-35" x1="109.85" y1="-34.61" x2="113.22" y2="-32.06" gradientTransform="matrix(.87 -.5 0 1.15 80.31 273.56)" xlink:href="#linear-gradient"/><linearGradient id="linear-gradient-36" x1="114.05" y1="-34.61" x2="117.42" y2="-32.06" gradientTransform="matrix(.87 -.5 0 1.15 80.31 273.56)" xlink:href="#linear-gradient"/><linearGradient id="linear-gradient-37" x1="101.45" y1="-31.18" x2="104.82" y2="-28.64" gradientTransform="matrix(.87 -.5 0 1.15 80.31 273.56)" xlink:href="#linear-gradient"/><linearGradient id="linear-gradient-38" x1="105.65" y1="-31.18" x2="109.02" y2="-28.64" gradientTransform="matrix(.87 -.5 0 1.15 80.31 273.56)" xlink:href="#linear-gradient"/><linearGradient id="linear-gradient-39" x1="109.85" y1="-31.18" x2="113.22" y2="-28.64" gradientTransform="matrix(.87 -.5 0 1.15 80.31 273.56)" xlink:href="#linear-gradient"/><linearGradient id="linear-gradient-40" x1="114.05" y1="-31.18" x2="117.42" y2="-28.64" gradientTransform="matrix(.87 -.5 0 1.15 80.31 273.56)" xlink:href="#linear-gradient"/><linearGradient id="linear-gradient-41" x1="101.45" y1="-27.75" x2="104.82" y2="-25.21" gradientTransform="matrix(.87 -.5 0 1.15 80.31 273.56)" xlink:href="#linear-gradient"/><linearGradient id="linear-gradient-42" x1="105.65" y1="-27.75" x2="109.02" y2="-25.21" gradientTransform="matrix(.87 -.5 0 1.15 80.31 273.56)" xlink:href="#linear-gradient"/><linearGradient id="linear-gradient-43" x1="109.85" y1="-27.75" x2="113.22" y2="-25.21" gradientTransform="matrix(.87 -.5 0 1.15 80.31 273.56)" xlink:href="#linear-gradient"/><linearGradient id="linear-gradient-44" x1="114.05" y1="-27.75" x2="117.42" y2="-25.21" gradientTransform="matrix(.87 -.5 0 1.15 80.31 273.56)" xlink:href="#linear-gradient"/><linearGradient id="linear-gradient-45" x1="101.45" y1="-24.33" x2="104.82" y2="-21.79" gradientTransform="matrix(.87 -.5 0 1.15 80.31 273.56)" xlink:href="#linear-gradient"/><linearGradient id="linear-gradient-46" x1="105.65" y1="-24.33" x2="109.02" y2="-21.79" gradientTransform="matrix(.87 -.5 0 1.15 80.31 273.56)" xlink:href="#linear-gradient"/><linearGradient id="linear-gradient-47" x1="109.85" y1="-24.33" x2="113.22" y2="-21.79" gradientTransform="matrix(.87 -.5 0 1.15 80.31 273.56)" xlink:href="#linear-gradient"/><linearGradient id="linear-gradient-48" x1="114.05" y1="-24.33" x2="117.42" y2="-21.79" gradientTransform="matrix(.87 -.5 0 1.15 80.31 273.56)" xlink:href="#linear-gradient"/><linearGradient id="linear-gradient-49" x1="68.72" y1="139.24" x2="177.99" y2="139.24" xlink:href="#linear-gradient-13"/><linearGradient id="linear-gradient-50" x1="104.05" y1="168.04" x2="186.11" y2="168.04" xlink:href="#linear-gradient-13"/><linearGradient id="linear-gradient-51" x1="60.87" y1="132.82" x2="128.23" y2="200.18" xlink:href="#linear-gradient-13"/><linearGradient id="linear-gradient-52" x1="60.4" y1="125.41" x2="186.31" y2="125.41" xlink:href="#linear-gradient-14"/><linearGradient id="linear-gradient-53" x1="101.11" y1="158.59" x2="195.68" y2="158.59" xlink:href="#linear-gradient-14"/><linearGradient id="linear-gradient-54" x1="102.37" y1="122.55" x2="171.12" y2="191.3" xlink:href="#linear-gradient-13"/><linearGradient id="linear-gradient-55" x1="126.24" y1="98.68" x2="194.99" y2="167.43" xlink:href="#linear-gradient-13"/><linearGradient id="linear-gradient-56" x1="51.36" y1="118.02" x2="128.97" y2="195.63" xlink:href="#linear-gradient-14"/><linearGradient id="linear-gradient-57" x1="61.27" y1="-55.91" x2="84.59" y2="-32.59" gradientTransform="matrix(.87 -.5 0 1.15 75.47 253.69)" xlink:href="#linear-gradient"/><linearGradient id="linear-gradient-58" x1="65.23" y1="-60.58" x2="88.94" y2="-36.87" gradientTransform="matrix(.87 -.5 0 1.15 75.47 253.69)" xlink:href="#linear-gradient"/><linearGradient id="linear-gradient-59" x1="69.57" y1="-64.78" x2="92.9" y2="-41.46" gradientTransform="matrix(.87 -.5 0 1.15 75.47 253.69)" xlink:href="#linear-gradient"/><linearGradient id="linear-gradient-60" x1="70.55" y1="-70.13" x2="96.26" y2="-44.42" gradientTransform="matrix(.87 -.5 0 1.15 75.47 253.69)" xlink:href="#linear-gradient"/><linearGradient id="linear-gradient-61" x1="60" y1="-51.22" x2="83.87" y2="-27.35" gradientTransform="matrix(.87 -.5 0 1.15 75.47 253.69)" xlink:href="#linear-gradient"/><linearGradient id="linear-gradient-62" x1="65.34" y1="-56.33" x2="88.44" y2="-33.23" gradientTransform="matrix(.87 -.5 0 1.15 75.47 253.69)" xlink:href="#linear-gradient"/><linearGradient id="linear-gradient-63" x1="70.94" y1="-62.74" x2="94.37" y2="-39.31" gradientTransform="matrix(.87 -.5 0 1.15 75.47 253.69)" xlink:href="#linear-gradient"/><linearGradient id="linear-gradient-64" x1="64.2" y1="-53.17" x2="88.9" y2="-28.47" gradientTransform="matrix(.87 -.5 0 1.15 75.47 253.69)" xlink:href="#linear-gradient"/><linearGradient id="linear-gradient-65" x1="69.67" y1="-57.16" x2="92.75" y2="-34.08" gradientTransform="matrix(.87 -.5 0 1.15 75.47 253.69)" xlink:href="#linear-gradient"/><linearGradient id="linear-gradient-66" x1="61.41" y1="-48.68" x2="84.69" y2="-25.4" gradientTransform="matrix(.87 -.5 0 1.15 75.47 253.69)" xlink:href="#linear-gradient"/><linearGradient id="linear-gradient-67" x1="64.51" y1="-47.93" x2="87.43" y2="-25.01" gradientTransform="matrix(.87 -.5 0 1.15 75.47 253.69)" xlink:href="#linear-gradient"/><linearGradient id="linear-gradient-68" x1="71.24" y1="-56.15" x2="94.93" y2="-32.46" gradientTransform="matrix(.87 -.5 0 1.15 75.47 253.69)" xlink:href="#linear-gradient"/><linearGradient id="linear-gradient-69" x1="101.45" y1="-68.62" x2="104.82" y2="-66.08" gradientTransform="matrix(.87 -.5 0 1.15 80.31 273.56)" xlink:href="#linear-gradient"/><linearGradient id="linear-gradient-70" x1="105.65" y1="-68.62" x2="109.02" y2="-66.08" gradientTransform="matrix(.87 -.5 0 1.15 80.31 273.56)" xlink:href="#linear-gradient"/><linearGradient id="linear-gradient-71" x1="109.85" y1="-68.62" x2="113.22" y2="-66.08" gradientTransform="matrix(.87 -.5 0 1.15 80.31 273.56)" xlink:href="#linear-gradient"/><linearGradient id="linear-gradient-72" x1="114.05" y1="-68.62" x2="117.42" y2="-66.08" gradientTransform="matrix(.87 -.5 0 1.15 80.31 273.56)" xlink:href="#linear-gradient"/><linearGradient id="linear-gradient-73" x1="101.45" y1="-65.19" x2="104.82" y2="-62.65" gradientTransform="matrix(.87 -.5 0 1.15 80.31 273.56)" xlink:href="#linear-gradient"/><linearGradient id="linear-gradient-74" x1="105.65" y1="-65.19" x2="109.02" y2="-62.65" gradientTransform="matrix(.87 -.5 0 1.15 80.31 273.56)" xlink:href="#linear-gradient"/><linearGradient id="linear-gradient-75" x1="109.85" y1="-65.19" x2="113.22" y2="-62.65" gradientTransform="matrix(.87 -.5 0 1.15 80.31 273.56)" xlink:href="#linear-gradient"/><linearGradient id="linear-gradient-76" x1="114.05" y1="-65.19" x2="117.42" y2="-62.65" gradientTransform="matrix(.87 -.5 0 1.15 80.31 273.56)" xlink:href="#linear-gradient"/><linearGradient id="linear-gradient-77" x1="101.45" y1="-61.77" x2="104.82" y2="-59.23" gradientTransform="matrix(.87 -.5 0 1.15 80.31 273.56)" xlink:href="#linear-gradient"/><linearGradient id="linear-gradient-78" x1="105.65" y1="-61.77" x2="109.02" y2="-59.23" gradientTransform="matrix(.87 -.5 0 1.15 80.31 273.56)" xlink:href="#linear-gradient"/><linearGradient id="linear-gradient-79" x1="109.85" y1="-61.77" x2="113.22" y2="-59.23" gradientTransform="matrix(.87 -.5 0 1.15 80.31 273.56)" xlink:href="#linear-gradient"/><linearGradient id="linear-gradient-80" x1="114.05" y1="-61.77" x2="117.42" y2="-59.23" gradientTransform="matrix(.87 -.5 0 1.15 80.31 273.56)" xlink:href="#linear-gradient"/><linearGradient id="linear-gradient-81" x1="101.45" y1="-58.34" x2="104.82" y2="-55.8" gradientTransform="matrix(.87 -.5 0 1.15 80.31 273.56)" xlink:href="#linear-gradient"/><linearGradient id="linear-gradient-82" x1="105.65" y1="-58.34" x2="109.02" y2="-55.8" gradientTransform="matrix(.87 -.5 0 1.15 80.31 273.56)" xlink:href="#linear-gradient"/><linearGradient id="linear-gradient-83" x1="109.85" y1="-58.34" x2="113.22" y2="-55.8" gradientTransform="matrix(.87 -.5 0 1.15 80.31 273.56)" xlink:href="#linear-gradient"/><linearGradient id="linear-gradient-84" x1="114.05" y1="-58.34" x2="117.42" y2="-55.8" gradientTransform="matrix(.87 -.5 0 1.15 80.31 273.56)" xlink:href="#linear-gradient"/><linearGradient id="linear-gradient-85" x1="68.72" y1="99.96" x2="177.99" y2="99.96" xlink:href="#linear-gradient-13"/><linearGradient id="linear-gradient-86" x1="104.05" y1="128.76" x2="186.11" y2="128.76" xlink:href="#linear-gradient-13"/><linearGradient id="linear-gradient-87" x1="60.87" y1="93.55" x2="128.23" y2="160.9" xlink:href="#linear-gradient-13"/><linearGradient id="linear-gradient-88" x1="53.05" y1="63.52" x2="216.79" y2="116.18" xlink:href="#linear-gradient-14"/><linearGradient id="linear-gradient-89" x1="101.11" y1="119.32" x2="195.68" y2="119.32" xlink:href="#linear-gradient-14"/><linearGradient id="linear-gradient-90" x1="102.37" y1="83.27" x2="171.12" y2="152.02" xlink:href="#linear-gradient-13"/><linearGradient id="linear-gradient-91" x1="126.24" y1="59.4" x2="194.99" y2="128.15" xlink:href="#linear-gradient-13"/><linearGradient id="linear-gradient-92" x1="51.36" y1="78.74" x2="128.97" y2="156.35" xlink:href="#linear-gradient-14"/><linearGradient id="linear-gradient-93" x1="61.27" y1="-89.92" x2="84.59" y2="-66.61" gradientTransform="matrix(.87 -.5 0 1.15 75.47 253.69)" xlink:href="#linear-gradient"/><linearGradient id="linear-gradient-94" x1="65.23" y1="-94.59" x2="88.94" y2="-70.89" gradientTransform="matrix(.87 -.5 0 1.15 75.47 253.69)" xlink:href="#linear-gradient"/><linearGradient id="linear-gradient-95" x1="69.57" y1="-98.8" x2="92.9" y2="-75.47" gradientTransform="matrix(.87 -.5 0 1.15 75.47 253.69)" xlink:href="#linear-gradient"/><linearGradient id="linear-gradient-96" x1="70.55" y1="-104.15" x2="96.26" y2="-78.44" gradientTransform="matrix(.87 -.5 0 1.15 75.47 253.69)" xlink:href="#linear-gradient"/><linearGradient id="linear-gradient-97" x1="60" y1="-85.24" x2="83.87" y2="-61.36" gradientTransform="matrix(.87 -.5 0 1.15 75.47 253.69)" xlink:href="#linear-gradient"/><linearGradient id="linear-gradient-98" x1="65.34" y1="-90.34" x2="88.44" y2="-67.25" gradientTransform="matrix(.87 -.5 0 1.15 75.47 253.69)" xlink:href="#linear-gradient"/><linearGradient id="linear-gradient-99" x1="70.94" y1="-96.75" x2="94.37" y2="-73.32" gradientTransform="matrix(.87 -.5 0 1.15 75.47 253.69)" xlink:href="#linear-gradient"/><linearGradient id="linear-gradient-100" x1="64.2" y1="-87.18" x2="88.9" y2="-62.48" gradientTransform="matrix(.87 -.5 0 1.15 75.47 253.69)" xlink:href="#linear-gradient"/><linearGradient id="linear-gradient-101" x1="69.67" y1="-91.18" x2="92.75" y2="-68.09" gradientTransform="matrix(.87 -.5 0 1.15 75.47 253.69)" xlink:href="#linear-gradient"/><linearGradient id="linear-gradient-102" x1="61.41" y1="-82.69" x2="84.69" y2="-59.41" gradientTransform="matrix(.87 -.5 0 1.15 75.47 253.69)" xlink:href="#linear-gradient"/><linearGradient id="linear-gradient-103" x1="64.51" y1="-81.94" x2="87.43" y2="-59.02" gradientTransform="matrix(.87 -.5 0 1.15 75.47 253.69)" xlink:href="#linear-gradient"/><linearGradient id="linear-gradient-104" x1="71.24" y1="-90.17" x2="94.93" y2="-66.47" gradientTransform="matrix(.87 -.5 0 1.15 75.47 253.69)" xlink:href="#linear-gradient"/><linearGradient id="linear-gradient-105" x1="101.45" y1="-102.63" x2="104.82" y2="-100.09" gradientTransform="matrix(.87 -.5 0 1.15 80.31 273.56)" xlink:href="#linear-gradient"/><linearGradient id="linear-gradient-106" x1="105.65" y1="-102.63" x2="109.02" y2="-100.09" gradientTransform="matrix(.87 -.5 0 1.15 80.31 273.56)" xlink:href="#linear-gradient"/><linearGradient id="linear-gradient-107" x1="109.85" y1="-102.63" x2="113.22" y2="-100.09" gradientTransform="matrix(.87 -.5 0 1.15 80.31 273.56)" xlink:href="#linear-gradient"/><linearGradient id="linear-gradient-108" x1="114.05" y1="-102.63" x2="117.42" y2="-100.09" gradientTransform="matrix(.87 -.5 0 1.15 80.31 273.56)" xlink:href="#linear-gradient"/><linearGradient id="linear-gradient-109" x1="101.45" y1="-99.21" x2="104.82" y2="-96.67" gradientTransform="matrix(.87 -.5 0 1.15 80.31 273.56)" xlink:href="#linear-gradient"/><linearGradient id="linear-gradient-110" x1="105.65" y1="-99.21" x2="109.02" y2="-96.67" gradientTransform="matrix(.87 -.5 0 1.15 80.31 273.56)" xlink:href="#linear-gradient"/><linearGradient id="linear-gradient-111" x1="109.85" y1="-99.21" x2="113.22" y2="-96.67" gradientTransform="matrix(.87 -.5 0 1.15 80.31 273.56)" xlink:href="#linear-gradient"/><linearGradient id="linear-gradient-112" x1="114.05" y1="-99.21" x2="117.42" y2="-96.66" gradientTransform="matrix(.87 -.5 0 1.15 80.31 273.56)" xlink:href="#linear-gradient"/><linearGradient id="linear-gradient-113" x1="101.45" y1="-95.78" x2="104.82" y2="-93.24" gradientTransform="matrix(.87 -.5 0 1.15 80.31 273.56)" xlink:href="#linear-gradient"/><linearGradient id="linear-gradient-114" x1="105.65" y1="-95.78" x2="109.02" y2="-93.24" gradientTransform="matrix(.87 -.5 0 1.15 80.31 273.56)" xlink:href="#linear-gradient"/><linearGradient id="linear-gradient-115" x1="109.85" y1="-95.78" x2="113.22" y2="-93.24" gradientTransform="matrix(.87 -.5 0 1.15 80.31 273.56)" xlink:href="#linear-gradient"/><linearGradient id="linear-gradient-116" x1="114.05" y1="-95.78" x2="117.42" y2="-93.24" gradientTransform="matrix(.87 -.5 0 1.15 80.31 273.56)" xlink:href="#linear-gradient"/><linearGradient id="linear-gradient-117" x1="101.45" y1="-92.36" x2="104.82" y2="-89.81" gradientTransform="matrix(.87 -.5 0 1.15 80.31 273.56)" xlink:href="#linear-gradient"/><linearGradient id="linear-gradient-118" x1="105.65" y1="-92.36" x2="109.02" y2="-89.81" gradientTransform="matrix(.87 -.5 0 1.15 80.31 273.56)" xlink:href="#linear-gradient"/><linearGradient id="linear-gradient-119" x1="109.85" y1="-92.36" x2="113.22" y2="-89.81" gradientTransform="matrix(.87 -.5 0 1.15 80.31 273.56)" xlink:href="#linear-gradient"/><linearGradient id="linear-gradient-120" x1="114.05" y1="-92.36" x2="117.42" y2="-89.81" gradientTransform="matrix(.87 -.5 0 1.15 80.31 273.56)" xlink:href="#linear-gradient"/><linearGradient id="linear-gradient-121" x1="151.45" y1="312.13" x2="158.16" y2="312.13" xlink:href="#linear-gradient-13"/><linearGradient id="linear-gradient-122" x1="112.18" y1="319.08" x2="140.35" y2="319.08" xlink:href="#linear-gradient-13"/><linearGradient id="linear-gradient-123" x1="85.77" y1="333.07" x2="166.76" y2="333.07" xlink:href="#linear-gradient-13"/><linearGradient id="linear-gradient-124" x1="85.81" y1="316.46" x2="166.76" y2="316.46" xlink:href="#linear-gradient-14"/><linearGradient id="linear-gradient-125" x1="184.68" y1="349.54" x2="188.39" y2="349.54" xlink:href="#linear-gradient-13"/><linearGradient id="linear-gradient-126" x1="162.94" y1="353.39" x2="178.53" y2="353.39" xlink:href="#linear-gradient-13"/><linearGradient id="linear-gradient-127" x1="148.32" y1="361.13" x2="193.15" y2="361.13" xlink:href="#linear-gradient-13"/><linearGradient id="linear-gradient-128" x1="148.34" y1="351.94" x2="193.15" y2="351.94" xlink:href="#linear-gradient-14"/><linearGradient id="linear-gradient-129" x1="92.59" y1="301.72" x2="113.09" y2="301.72" xlink:href="#linear-gradient-13"/><linearGradient id="linear-gradient-130" x1="77.75" y1="265.09" x2="145.83" y2="265.09" xlink:href="#linear-gradient-13"/><linearGradient id="linear-gradient-131" x1="291.33" y1="197.1" x2="369.2" y2="197.1" xlink:href="#linear-gradient-14"/><linearGradient id="linear-gradient-132" x1="291.37" y1="179.4" x2="369.2" y2="179.4" gradientTransform="rotate(89.84 330.282 179.391)" xlink:href="#linear-gradient-13"/><linearGradient id="linear-gradient-133" x1="162.92" y1="65.78" x2="208.68" y2="111.55" gradientTransform="matrix(1 -.58 .87 .5 58.07 241.54)" xlink:href="#linear-gradient"/><linearGradient id="linear-gradient-134" x1="188.38" y1="403.4" x2="309.91" y2="403.4" xlink:href="#linear-gradient-13"/><linearGradient id="linear-gradient-135" x1="188.4" y1="388.24" x2="309.91" y2="388.24" xlink:href="#linear-gradient-14"/><linearGradient id="linear-gradient-136" x1="193.26" y1="387.83" x2="304.77" y2="387.83" xlink:href="#linear-gradient-13"/><linearGradient id="linear-gradient-137" x1="264.2" y1="39.79" x2="264.2" y2="198.08" xlink:href="#linear-gradient-13"/><linearGradient id="linear-gradient-138" x1="226.62" y1="39.79" x2="226.62" y2="198.08" xlink:href="#linear-gradient-13"/><linearGradient id="linear-gradient-139" x1="207.41" y1="111.73" x2="320.67" y2="224.99" xlink:href="#linear-gradient-14"/><linearGradient id="linear-gradient-140" x1="278.46" y1="55.29" x2="278.46" y2="188.86" xlink:href="#linear-gradient-13"/><linearGradient id="linear-gradient-141" x1="246.75" y1="55.29" x2="246.75" y2="188.86" xlink:href="#linear-gradient-13"/><linearGradient id="linear-gradient-142" x1="229.6" y1="130.31" x2="399.31" y2="201.72" xlink:href="#linear-gradient-14"/><linearGradient id="linear-gradient-143" x1="682.39" y1="182.4" x2="828.66" y2="182.4" gradientTransform="matrix(-.87 .5 -.5 1.44 1134.3 -404.02)" gradientUnits="userSpaceOnUse"><stop offset=".04" stop-color="#e3ebff"/><stop offset="1" stop-color="#dce4f9"/></linearGradient><linearGradient id="linear-gradient-144" x1="620.33" y1="195.71" x2="693.71" y2="305.78" gradientTransform="matrix(-1 0 0 1 1015.25 0)" xlink:href="#linear-gradient-13"/><linearGradient id="linear-gradient-145" x1="596.06" y1="144.83" x2="610.13" y2="158.9" gradientTransform="matrix(-.87 .5 0 1.15 950.75 -298.25)" xlink:href="#linear-gradient"/><linearGradient id="linear-gradient-146" x1="604.01" y1="144.83" x2="618.08" y2="158.9" gradientTransform="matrix(-.87 .5 0 1.15 950.75 -298.25)" xlink:href="#linear-gradient"/><linearGradient id="linear-gradient-147" x1="611.97" y1="144.83" x2="626.03" y2="158.9" gradientTransform="matrix(-.87 .5 0 1.15 950.75 -298.25)" xlink:href="#linear-gradient"/><linearGradient id="linear-gradient-148" x1="301.3" y1="350.05" x2="473.42" y2="350.05" xlink:href="#linear-gradient-14"/><linearGradient id="linear-gradient-149" x1="303.52" y1="320.1" x2="512.39" y2="412.6" xlink:href="#linear-gradient-14"/><linearGradient id="linear-gradient-150" x1="296.51" y1="343.42" x2="367.18" y2="343.42" xlink:href="#linear-gradient-13"/><linearGradient id="linear-gradient-151" x1="270.62" y1="212.87" x2="394.92" y2="330.35" xlink:href="#linear-gradient-14"/><linearGradient id="linear-gradient-152" x1="277.81" y1="219.67" x2="391.46" y2="327.07" xlink:href="#linear-gradient-13"/><linearGradient id="linear-gradient-153" x1="296.74" y1="251.93" x2="407.75" y2="251.93" xlink:href="#linear-gradient-14"/><linearGradient id="linear-gradient-154" x1="350.18" y1="312.11" x2="359.71" y2="321.12" gradientTransform="matrix(1 -.58 .87 .5 -312.32 408.69)" xlink:href="#linear-gradient-13"/><linearGradient id="linear-gradient-155" x1="356.41" y1="312.11" x2="365.94" y2="321.12" gradientTransform="matrix(1 -.58 .87 .5 -312.32 408.69)" xlink:href="#linear-gradient-13"/><linearGradient id="linear-gradient-156" x1="362.64" y1="312.11" x2="372.17" y2="321.12" gradientTransform="matrix(1 -.58 .87 .5 -312.32 408.69)" xlink:href="#linear-gradient-13"/><linearGradient id="linear-gradient-157" x1="368.87" y1="312.11" x2="378.4" y2="321.12" gradientTransform="matrix(1 -.58 .87 .5 -312.32 408.69)" xlink:href="#linear-gradient-13"/><linearGradient id="linear-gradient-158" x1="375.1" y1="312.11" x2="384.63" y2="321.12" gradientTransform="matrix(1 -.58 .87 .5 -312.32 408.69)" xlink:href="#linear-gradient-13"/><linearGradient id="linear-gradient-159" x1="381.33" y1="312.11" x2="390.86" y2="321.12" gradientTransform="matrix(1 -.58 .87 .5 -312.32 408.69)" xlink:href="#linear-gradient-13"/><linearGradient id="linear-gradient-160" x1="387.56" y1="312.11" x2="397.09" y2="321.12" gradientTransform="matrix(1 -.58 .87 .5 -312.32 408.69)" xlink:href="#linear-gradient-13"/><linearGradient id="linear-gradient-161" x1="393.79" y1="312.11" x2="403.32" y2="321.12" gradientTransform="matrix(1 -.58 .87 .5 -312.32 408.69)" xlink:href="#linear-gradient-13"/><linearGradient id="linear-gradient-162" x1="400.02" y1="312.11" x2="409.55" y2="321.12" gradientTransform="matrix(1 -.58 .87 .5 -312.32 408.69)" xlink:href="#linear-gradient-13"/><linearGradient id="linear-gradient-163" x1="406.25" y1="312.11" x2="415.78" y2="321.12" gradientTransform="matrix(1 -.58 .87 .5 -312.32 408.69)" xlink:href="#linear-gradient-13"/><linearGradient id="linear-gradient-164" x1="412.48" y1="312.11" x2="422.01" y2="321.12" gradientTransform="matrix(1 -.58 .87 .5 -312.32 408.69)" xlink:href="#linear-gradient-13"/><linearGradient id="linear-gradient-165" x1="418.71" y1="312.11" x2="428.24" y2="321.12" gradientTransform="matrix(1 -.58 .87 .5 -312.32 408.69)" xlink:href="#linear-gradient-13"/><linearGradient id="linear-gradient-166" x1="424.94" y1="312.11" x2="434.47" y2="321.12" gradientTransform="matrix(1 -.58 .87 .5 -312.32 408.69)" xlink:href="#linear-gradient-13"/><linearGradient id="linear-gradient-167" x1="431.17" y1="312.11" x2="440.7" y2="321.12" gradientTransform="matrix(1 -.58 .87 .5 -312.32 408.69)" xlink:href="#linear-gradient-13"/><linearGradient id="linear-gradient-168" x1="437.4" y1="312.11" x2="446.93" y2="321.12" gradientTransform="matrix(1 -.58 .87 .5 -312.32 408.69)" xlink:href="#linear-gradient-13"/><linearGradient id="linear-gradient-169" x1="356.41" y1="320.26" x2="365.94" y2="329.27" gradientTransform="matrix(1 -.58 .87 .5 -312.32 408.69)" xlink:href="#linear-gradient-13"/><linearGradient id="linear-gradient-170" x1="362.64" y1="320.26" x2="372.17" y2="329.27" gradientTransform="matrix(1 -.58 .87 .5 -312.32 408.69)" xlink:href="#linear-gradient-13"/><linearGradient id="linear-gradient-171" x1="368.87" y1="320.26" x2="378.4" y2="329.27" gradientTransform="matrix(1 -.58 .87 .5 -312.32 408.69)" xlink:href="#linear-gradient-13"/><linearGradient id="linear-gradient-172" x1="375.1" y1="320.26" x2="384.63" y2="329.27" gradientTransform="matrix(1 -.58 .87 .5 -312.32 408.69)" xlink:href="#linear-gradient-13"/><linearGradient id="linear-gradient-173" x1="381.33" y1="320.26" x2="390.86" y2="329.27" gradientTransform="matrix(1 -.58 .87 .5 -312.32 408.69)" xlink:href="#linear-gradient-13"/><linearGradient id="linear-gradient-174" x1="387.56" y1="320.26" x2="397.09" y2="329.27" gradientTransform="matrix(1 -.58 .87 .5 -312.32 408.69)" xlink:href="#linear-gradient-13"/><linearGradient id="linear-gradient-175" x1="393.79" y1="320.26" x2="403.32" y2="329.27" gradientTransform="matrix(1 -.58 .87 .5 -312.32 408.69)" xlink:href="#linear-gradient-13"/><linearGradient id="linear-gradient-176" x1="400.02" y1="320.26" x2="409.55" y2="329.27" gradientTransform="matrix(1 -.58 .87 .5 -312.32 408.69)" xlink:href="#linear-gradient-13"/><linearGradient id="linear-gradient-177" x1="406.25" y1="320.26" x2="415.78" y2="329.27" gradientTransform="matrix(1 -.58 .87 .5 -312.32 408.69)" xlink:href="#linear-gradient-13"/><linearGradient id="linear-gradient-178" x1="412.48" y1="320.26" x2="422.01" y2="329.27" gradientTransform="matrix(1 -.58 .87 .5 -312.32 408.69)" xlink:href="#linear-gradient-13"/><linearGradient id="linear-gradient-179" x1="418.71" y1="320.26" x2="428.24" y2="329.27" gradientTransform="matrix(1 -.58 .87 .5 -312.32 408.69)" xlink:href="#linear-gradient-13"/><linearGradient id="linear-gradient-180" x1="424.94" y1="320.26" x2="434.47" y2="329.27" gradientTransform="matrix(1 -.58 .87 .5 -312.32 408.69)" xlink:href="#linear-gradient-13"/><linearGradient id="linear-gradient-181" x1="431.17" y1="320.26" x2="440.7" y2="329.27" gradientTransform="matrix(1 -.58 .87 .5 -312.32 408.69)" xlink:href="#linear-gradient-13"/><linearGradient id="linear-gradient-182" x1="437.4" y1="320.26" x2="446.93" y2="329.27" gradientTransform="matrix(1 -.58 .87 .5 -312.32 408.69)" xlink:href="#linear-gradient-13"/><linearGradient id="linear-gradient-183" x1="342.17" y1="316.77" x2="366" y2="339.29" gradientTransform="matrix(1 -.58 .87 .5 -312.32 408.69)" xlink:href="#linear-gradient-13"/><linearGradient id="linear-gradient-184" x1="362.64" y1="328.41" x2="372.17" y2="337.42" gradientTransform="matrix(1 -.58 .87 .5 -312.32 408.69)" xlink:href="#linear-gradient-13"/><linearGradient id="linear-gradient-185" x1="368.87" y1="328.41" x2="378.4" y2="337.42" gradientTransform="matrix(1 -.58 .87 .5 -312.32 408.69)" xlink:href="#linear-gradient-13"/><linearGradient id="linear-gradient-186" x1="375.1" y1="328.41" x2="384.63" y2="337.42" gradientTransform="matrix(1 -.58 .87 .5 -312.32 408.69)" xlink:href="#linear-gradient-13"/><linearGradient id="linear-gradient-187" x1="381.33" y1="328.41" x2="390.86" y2="337.42" gradientTransform="matrix(1 -.58 .87 .5 -312.32 408.69)" xlink:href="#linear-gradient-13"/><linearGradient id="linear-gradient-188" x1="387.56" y1="328.41" x2="397.09" y2="337.42" gradientTransform="matrix(1 -.58 .87 .5 -312.32 408.69)" xlink:href="#linear-gradient-13"/><linearGradient id="linear-gradient-189" x1="393.79" y1="328.41" x2="403.32" y2="337.42" gradientTransform="matrix(1 -.58 .87 .5 -312.32 408.69)" xlink:href="#linear-gradient-13"/><linearGradient id="linear-gradient-190" x1="400.02" y1="328.41" x2="409.55" y2="337.42" gradientTransform="matrix(1 -.58 .87 .5 -312.32 408.69)" xlink:href="#linear-gradient-13"/><linearGradient id="linear-gradient-191" x1="406.25" y1="328.41" x2="415.78" y2="337.42" gradientTransform="matrix(1 -.58 .87 .5 -312.32 408.69)" xlink:href="#linear-gradient-13"/><linearGradient id="linear-gradient-192" x1="412.48" y1="328.41" x2="422.01" y2="337.42" gradientTransform="matrix(1 -.58 .87 .5 -312.32 408.69)" xlink:href="#linear-gradient-13"/><linearGradient id="linear-gradient-193" x1="418.71" y1="328.41" x2="428.24" y2="337.42" gradientTransform="matrix(1 -.58 .87 .5 -312.32 408.69)" xlink:href="#linear-gradient-13"/><linearGradient id="linear-gradient-194" x1="424.94" y1="328.41" x2="434.47" y2="337.42" gradientTransform="matrix(1 -.58 .87 .5 -312.32 408.69)" xlink:href="#linear-gradient-13"/><linearGradient id="linear-gradient-195" x1="431.17" y1="328.41" x2="440.7" y2="337.42" gradientTransform="matrix(1 -.58 .87 .5 -312.32 408.69)" xlink:href="#linear-gradient-13"/><linearGradient id="linear-gradient-196" x1="437.4" y1="328.41" x2="446.93" y2="337.42" gradientTransform="matrix(1 -.58 .87 .5 -312.32 408.69)" xlink:href="#linear-gradient-13"/><linearGradient id="linear-gradient-197" x1="350.18" y1="336.56" x2="359.71" y2="345.57" gradientTransform="matrix(1 -.58 .87 .5 -312.32 408.69)" xlink:href="#linear-gradient-13"/><linearGradient id="linear-gradient-198" x1="356.41" y1="336.56" x2="365.94" y2="345.57" gradientTransform="matrix(1 -.58 .87 .5 -312.32 408.69)" xlink:href="#linear-gradient-13"/><linearGradient id="linear-gradient-199" x1="362.64" y1="336.56" x2="372.17" y2="345.57" gradientTransform="matrix(1 -.58 .87 .5 -312.32 408.69)" xlink:href="#linear-gradient-13"/><linearGradient id="linear-gradient-200" x1="368.87" y1="336.56" x2="378.4" y2="345.57" gradientTransform="matrix(1 -.58 .87 .5 -312.32 408.69)" xlink:href="#linear-gradient-13"/><linearGradient id="linear-gradient-201" x1="375.1" y1="336.56" x2="384.63" y2="345.57" gradientTransform="matrix(1 -.58 .87 .5 -312.32 408.69)" xlink:href="#linear-gradient-13"/><linearGradient id="linear-gradient-202" x1="381.33" y1="336.56" x2="390.86" y2="345.57" gradientTransform="matrix(1 -.58 .87 .5 -312.32 408.69)" xlink:href="#linear-gradient-13"/><linearGradient id="linear-gradient-203" x1="387.56" y1="336.56" x2="397.09" y2="345.57" gradientTransform="matrix(1 -.58 .87 .5 -312.32 408.69)" xlink:href="#linear-gradient-13"/><linearGradient id="linear-gradient-204" x1="393.79" y1="336.56" x2="403.32" y2="345.57" gradientTransform="matrix(1 -.58 .87 .5 -312.32 408.69)" xlink:href="#linear-gradient-13"/><linearGradient id="linear-gradient-205" x1="400.02" y1="336.56" x2="409.55" y2="345.57" gradientTransform="matrix(1 -.58 .87 .5 -312.32 408.69)" xlink:href="#linear-gradient-13"/><linearGradient id="linear-gradient-206" x1="406.25" y1="336.56" x2="415.78" y2="345.57" gradientTransform="matrix(1 -.58 .87 .5 -312.32 408.69)" xlink:href="#linear-gradient-13"/><linearGradient id="linear-gradient-207" x1="412.48" y1="336.56" x2="422.01" y2="345.57" gradientTransform="matrix(1 -.58 .87 .5 -312.32 408.69)" xlink:href="#linear-gradient-13"/><linearGradient id="linear-gradient-208" x1="418.71" y1="336.56" x2="428.24" y2="345.57" gradientTransform="matrix(1 -.58 .87 .5 -312.32 408.69)" xlink:href="#linear-gradient-13"/><linearGradient id="linear-gradient-209" x1="424.94" y1="336.56" x2="434.47" y2="345.57" gradientTransform="matrix(1 -.58 .87 .5 -312.32 408.69)" xlink:href="#linear-gradient-13"/><linearGradient id="linear-gradient-210" x1="431.17" y1="336.56" x2="440.7" y2="345.57" gradientTransform="matrix(1 -.58 .87 .5 -312.32 408.69)" xlink:href="#linear-gradient-13"/><linearGradient id="linear-gradient-211" x1="437.4" y1="336.56" x2="446.93" y2="345.57" gradientTransform="matrix(1 -.58 .87 .5 -312.32 408.69)" xlink:href="#linear-gradient-13"/><linearGradient id="linear-gradient-212" x1="350.18" y1="344.71" x2="359.71" y2="353.72" gradientTransform="matrix(1 -.58 .87 .5 -312.32 408.69)" xlink:href="#linear-gradient-13"/><linearGradient id="linear-gradient-213" x1="356.41" y1="344.71" x2="365.94" y2="353.72" gradientTransform="matrix(1 -.58 .87 .5 -312.32 408.69)" xlink:href="#linear-gradient-13"/><linearGradient id="linear-gradient-214" x1="362.64" y1="344.71" x2="372.17" y2="353.72" gradientTransform="matrix(1 -.58 .87 .5 -312.32 408.69)" xlink:href="#linear-gradient-13"/><linearGradient id="linear-gradient-215" x1="368.87" y1="344.71" x2="378.4" y2="353.72" gradientTransform="matrix(1 -.58 .87 .5 -312.32 408.69)" xlink:href="#linear-gradient-13"/><linearGradient id="linear-gradient-216" x1="367.89" y1="320.24" x2="415.79" y2="365.5" gradientTransform="matrix(1 -.58 .87 .5 -312.32 408.69)" xlink:href="#linear-gradient-13"/><linearGradient id="linear-gradient-217" x1="418.71" y1="344.71" x2="428.24" y2="353.72" gradientTransform="matrix(1 -.58 .87 .5 -312.32 408.69)" xlink:href="#linear-gradient-13"/><linearGradient id="linear-gradient-218" x1="424.94" y1="344.71" x2="434.47" y2="353.72" gradientTransform="matrix(1 -.58 .87 .5 -312.32 408.69)" xlink:href="#linear-gradient-13"/><linearGradient id="linear-gradient-219" x1="431.17" y1="344.71" x2="440.7" y2="353.72" gradientTransform="matrix(1 -.58 .87 .5 -312.32 408.69)" xlink:href="#linear-gradient-13"/><linearGradient id="linear-gradient-220" x1="437.4" y1="344.71" x2="446.93" y2="353.72" gradientTransform="matrix(1 -.58 .87 .5 -312.32 408.69)" xlink:href="#linear-gradient-13"/><linearGradient id="linear-gradient-221" x1="238.64" y1="374.59" x2="261.97" y2="374.59" xlink:href="#linear-gradient-14"/><linearGradient id="linear-gradient-222" x1="238.64" y1="370.96" x2="269.52" y2="370.96" xlink:href="#linear-gradient-13"/><linearGradient id="linear-gradient-223" x1="226.77" y1="360.36" x2="273.91" y2="360.36" xlink:href="#linear-gradient-14"/><linearGradient id="linear-gradient-224" x1="226.77" y1="356.73" x2="281.47" y2="356.73" xlink:href="#linear-gradient-13"/><linearGradient id="linear-gradient-225" x1="214.91" y1="346.13" x2="285.86" y2="346.13" xlink:href="#linear-gradient-14"/><linearGradient id="linear-gradient-226" x1="214.91" y1="342.5" x2="293.41" y2="342.5" xlink:href="#linear-gradient-13"/><linearGradient id="linear-gradient-227" x1="231.98" y1="342.36" x2="243.17" y2="391.66" gradientTransform="matrix(-1 0 0 1 493.81 0)" xlink:href="#linear-gradient"/><linearGradient id="linear-gradient-228" x1="229.47" y1="374.4" x2="273.8" y2="421.63" gradientTransform="matrix(-1 0 0 1 493.81 0)" xlink:href="#linear-gradient"/><linearGradient id="linear-gradient-229" x1="96.45" y1="376.48" x2="135.41" y2="319.49" xlink:href="#linear-gradient-13"/><linearGradient id="linear-gradient-230" x1="149.53" y1="368.4" x2="129.73" y2="395.63" xlink:href="#linear-gradient-14"/><linearGradient id="linear-gradient-231" x1="164.57" y1="399.07" x2="173.97" y2="399.07" xlink:href="#linear-gradient-13"/><linearGradient id="linear-gradient-232" x1="102.64" y1="352.59" x2="99.97" y2="364.92" xlink:href="#linear-gradient"/><linearGradient id="linear-gradient-233" x1="108.99" y1="361.53" x2="197.39" y2="421.56" gradientUnits="userSpaceOnUse"><stop offset="0" stop-color="#e3ebff"/><stop offset="1" stop-color="#978ef0"/></linearGradient><linearGradient id="linear-gradient-234" x1="32.66" y1="427.06" x2="160.73" y2="427.06" xlink:href="#linear-gradient-14"/><linearGradient id="linear-gradient-235" x1="108.17" y1="446.58" x2="35.93" y2="206.73" xlink:href="#linear-gradient-13"/><linearGradient id="linear-gradient-236" x1="81.95" y1="409.85" x2="66.48" y2="358.51" gradientTransform="matrix(1 -.58 .87 .5 -352.17 241.67)" xlink:href="#linear-gradient"/><linearGradient id="linear-gradient-237" x1="81.95" y1="418.42" x2="66.48" y2="367.08" gradientTransform="matrix(1 -.58 .87 .5 -352.17 241.67)" xlink:href="#linear-gradient"/><linearGradient id="linear-gradient-238" x1="81.95" y1="426.98" x2="66.48" y2="375.64" gradientTransform="matrix(1 -.58 .87 .5 -352.17 241.67)" xlink:href="#linear-gradient"/><linearGradient id="linear-gradient-239" x1="81.95" y1="435.55" x2="66.48" y2="384.21" gradientTransform="matrix(1 -.58 .87 .5 -352.17 241.67)" xlink:href="#linear-gradient"/><linearGradient id="linear-gradient-240" x1="81.95" y1="444.11" x2="66.48" y2="392.78" gradientTransform="matrix(1 -.58 .87 .5 -352.17 241.67)" xlink:href="#linear-gradient"/><linearGradient id="linear-gradient-241" x1="81.95" y1="452.68" x2="66.49" y2="401.34" gradientTransform="matrix(1 -.58 .87 .5 -352.17 241.67)" xlink:href="#linear-gradient"/><linearGradient id="linear-gradient-242" x1="81.95" y1="461.24" x2="66.49" y2="409.91" gradientTransform="matrix(1 -.58 .87 .5 -352.17 241.67)" xlink:href="#linear-gradient"/><style>.cls-1{isolation:isolate}.cls-14,.cls-15{fill:none;stroke:#a59df6;stroke-linecap:round;stroke-linejoin:round;stroke-width:1.87px}.cls-14{stroke-dasharray:0 5.61}.cls-20{fill:#fff}</style></defs><g id="OBJECTS"><g class="cls-1"><path d="M338.85 142.81v6.52c0 3.11-2.05 6.22-6.14 8.59-8.22 4.78-21.6 4.78-29.88 0-4.17-2.4-6.25-5.56-6.24-8.71v-6.52c0 3.15 2.07 6.31 6.24 8.71 8.28 4.78 21.65 4.78 29.88 0 4.09-2.4 6.13-5.48 6.14-8.59Z" style="fill:url(#linear-gradient)"/><ellipse cx="317.72" cy="142.75" rx="12.24" ry="21.13" transform="rotate(-89.84 317.708 142.752)" style="fill:url(#linear-gradient-2)"/></g><g class="cls-1"><path d="M338.85 131.68v6.52c0 3.12-2.05 6.22-6.14 8.6-8.22 4.78-21.6 4.78-29.88 0-4.17-2.41-6.25-5.56-6.24-8.72v-6.52c0 3.15 2.07 6.31 6.24 8.72 8.28 4.78 21.65 4.78 29.88 0 4.09-2.38 6.13-5.49 6.14-8.6Z" style="fill:url(#linear-gradient-3)"/><ellipse cx="317.72" cy="131.62" rx="12.24" ry="21.13" transform="rotate(-89.84 317.713 131.626)" style="fill:url(#linear-gradient-4)"/></g><g class="cls-1"><path d="M338.85 120.56v6.52c0 3.11-2.05 6.22-6.14 8.6-8.22 4.78-21.6 4.78-29.88 0-4.17-2.41-6.25-5.57-6.24-8.72v-6.52c0 3.15 2.07 6.31 6.24 8.71 8.28 4.78 21.65 4.78 29.88 0 4.09-2.37 6.13-5.48 6.14-8.59Z" style="fill:url(#linear-gradient-5)"/><ellipse cx="317.72" cy="120.5" rx="12.24" ry="21.13" transform="rotate(-89.84 317.712 120.506)" style="fill:url(#linear-gradient-6)"/></g><g class="cls-1"><path d="M384.63 154.82v6.52c0 3.11-2.05 6.22-6.14 8.6-8.23 4.78-21.6 4.78-29.89 0-4.16-2.41-6.24-5.57-6.23-8.72v-6.52c0 3.15 2.08 6.31 6.24 8.72 8.28 4.78 21.66 4.78 29.89 0 4.08-2.42 6.12-5.49 6.13-8.6Z" style="fill:url(#linear-gradient-7)"/><path d="M378.39 146.1c8.28 4.79 8.33 12.53.1 17.32s-21.61 4.78-29.89 0-8.32-12.53-.09-17.32 21.6-4.78 29.88 0Z" style="fill:url(#linear-gradient-8)"/></g><g class="cls-1"><path d="M384.63 143.7v6.52c0 3.11-2.05 6.22-6.14 8.59-8.23 4.78-21.6 4.78-29.89 0-4.16-2.4-6.24-5.56-6.23-8.71v-6.52c0 3.15 2.08 6.31 6.24 8.71 8.28 4.78 21.66 4.78 29.89 0 4.08-2.37 6.12-5.48 6.13-8.59Z" style="fill:url(#linear-gradient-9)"/><path d="M378.39 135c8.28 4.78 8.33 12.53.1 17.31s-21.61 4.78-29.89 0-8.32-12.53-.09-17.31 21.6-4.8 29.88 0Z" style="fill:url(#linear-gradient-10)"/></g><g class="cls-1"><path d="M384.63 132.57v6.52c0 3.12-2.05 6.22-6.14 8.6-8.23 4.78-21.6 4.78-29.89 0-4.16-2.41-6.24-5.56-6.23-8.72v-6.52c0 3.16 2.08 6.31 6.24 8.72 8.28 4.78 21.66 4.78 29.89 0 4.08-2.38 6.12-5.48 6.13-8.6Z" style="fill:url(#linear-gradient-11)"/><ellipse cx="363.5" cy="132.51" rx="12.24" ry="21.13" transform="rotate(-89.84 363.483 132.518)" style="fill:url(#linear-gradient-12)"/></g><path class="cls-14" d="m144.2 329.07 89.15 55.62m39.13 10.58 77.56-45.43m-194.78-51.89 149.47-93.59"/><path class="cls-15" d="M151.6 194.85h0"/><path style="stroke-dasharray:0 5.62;fill:none;stroke:#a59df6;stroke-linecap:round;stroke-linejoin:round;stroke-width:1.87px" d="m156.35 197.87 234.86 149.45"/><path class="cls-15" d="M393.58 348.83h0"/><path d="m323.2 247.18-80.39 46.71a14.92 14.92 0 0 1-13.58 0l-80.91-46.71c-1.9-1.1-2.84-2.53-2.84-4v13c0 1.43.95 2.87 2.84 4l80.92 46.72a15 15 0 0 0 13.57 0l80.39-46.72c1.86-1.08 2.79-2.49 2.79-3.9v-13c.01 1.41-.93 2.82-2.79 3.9Z" style="fill:url(#linear-gradient-13)"/><path d="M323.16 239.31c3.76 2.17 3.78 5.69 0 7.87l-80.39 46.71a14.92 14.92 0 0 1-13.58 0l-80.91-46.71c-3.77-2.18-3.79-5.7 0-7.87l80.39-46.72a15 15 0 0 1 13.58 0Z" style="fill:url(#linear-gradient-14)"/><path d="m301.92 242.58-60.17 35a11.25 11.25 0 0 1-10.17 0l-60.57-35a3.61 3.61 0 0 1-2.12-3v5.31a3.61 3.61 0 0 0 2.13 3l60.56 35a11.25 11.25 0 0 0 10.17 0l60.17-35A3.57 3.57 0 0 0 304 245v-5.31a3.57 3.57 0 0 1-2.08 2.89Z" style="fill:url(#linear-gradient-15)"/><path class="cls-20" d="M301.89 236.69c2.81 1.63 2.83 4.26 0 5.89l-60.17 35a11.25 11.25 0 0 1-10.17 0l-60.57-35c-2.81-1.63-2.83-4.26 0-5.89l60.18-35a11.23 11.23 0 0 1 10.16 0Z"/><text transform="matrix(.86 -.5 .87 .5 214.34 259.45)" style="fill:#a59df6;font-size:25.87px;font-family:Montserrat-Bold,Montserrat;font-weight:700">SaaS</text><g class="cls-1"><path style="fill:url(#linear-gradient-16)" d="m186.31 164.68-62.75 36.47-63.16-36.47 62.75-36.46 63.16 36.46z"/><path style="fill:url(#linear-gradient-17)" d="m186.31 164.68-.08 29.91-62.76 36.47.09-29.91 62.75-36.47z"/><path style="fill:url(#linear-gradient-18)" d="m163.38 180.41-37.75 21.93-.07 25.1 37.82-21.97v-25.06z"/><path style="fill:url(#linear-gradient-19)" d="M165.11 179.4v25.06l19.04-11.06.07-25.11-19.11 11.11z"/><path style="fill:url(#linear-gradient-20)" d="m123.56 201.15-.09 29.91-63.15-36.46.08-29.92 63.16 36.47z"/></g><path style="fill:url(#linear-gradient-21)" d="m139.95 200.11-8.57 4.95v1.16l8.57-4.94v-1.17z"/><path style="fill:url(#linear-gradient-22)" d="m145.84 196.71-5.39 3.11v1.17l5.39-3.12v-1.16z"/><path style="fill:url(#linear-gradient-23)" d="m154.75 191.57-8.41 4.85v1.17l8.41-4.86v-1.16z"/><path style="fill:url(#linear-gradient-24)" d="M155.24 191.28v1.17l1.56-.9v-1.17l-1.56.9z"/><path d="M136 206.7v-.06l-4.61 2.66v1.17l4.61-2.66Z" style="fill:url(#linear-gradient-25)"/><path d="M136.49 206.36v1.11l12.51-7.16v-1.17Z" style="fill:url(#linear-gradient-26)"/><path style="fill:url(#linear-gradient-27)" d="M149.48 198.85v1.17l7.32-4.22v-1.17l-7.32 4.22z"/><path style="fill:url(#linear-gradient-28)" d="m143.5 206.56-2.59 1.49v1.17l2.59-1.49v-1.17z"/><path style="fill:url(#linear-gradient-29)" d="M143.99 206.27v1.17l12.81-7.4v-1.16l-12.81 7.39z"/><path style="fill:url(#linear-gradient-30)" d="m140.42 208.34-9.04 5.21v1.17l9.04-5.22v-1.16z"/><path d="m150.86 206.56-19.47 11.24v1.2l19.46-11.24c0-.42.01-.76.01-1.2Z" style="fill:url(#linear-gradient-31)"/><path d="M151.35 206.27v1.18l5.46-3.16v-1.16Z" style="fill:url(#linear-gradient-32)"/><path d="M170.36 183.18a1.39 1.39 0 0 1-.64 1.1c-.35.21-.64 0-.64-.36a1.43 1.43 0 0 1 .64-1.11c.36-.2.64-.04.64.37Z" style="fill:url(#linear-gradient-33)"/><path d="M174 181.08a1.41 1.41 0 0 1-.64 1.1c-.35.21-.64 0-.64-.36a1.43 1.43 0 0 1 .64-1.11c.35-.2.64-.04.64.37Z" style="fill:url(#linear-gradient-34)"/><path d="M177.64 179a1.41 1.41 0 0 1-.64 1.1c-.36.21-.64 0-.64-.36a1.41 1.41 0 0 1 .64-1.11c.35-.22.64-.06.64.37Z" style="fill:url(#linear-gradient-35)"/><path d="M181.28 176.88a1.4 1.4 0 0 1-.65 1.1c-.35.21-.64 0-.64-.36a1.43 1.43 0 0 1 .64-1.11c.37-.2.65-.04.65.37Z" style="fill:url(#linear-gradient-36)"/><path d="M170.36 187.13a1.41 1.41 0 0 1-.64 1.11c-.35.2-.64 0-.64-.37a1.41 1.41 0 0 1 .64-1.1c.36-.21.64-.04.64.36Z" style="fill:url(#linear-gradient-37)"/><path d="M174 185a1.43 1.43 0 0 1-.64 1.11c-.35.2-.64 0-.64-.37a1.41 1.41 0 0 1 .64-1.1c.35-.18.64-.01.64.36Z" style="fill:url(#linear-gradient-38)"/><path d="M177.64 182.93A1.43 1.43 0 0 1 177 184c-.36.2-.64 0-.64-.37a1.39 1.39 0 0 1 .64-1.1c.35-.17.64 0 .64.4Z" style="fill:url(#linear-gradient-39)"/><path d="M181.28 180.83a1.42 1.42 0 0 1-.65 1.11c-.35.2-.64 0-.64-.37a1.41 1.41 0 0 1 .64-1.1c.37-.21.65-.04.65.36Z" style="fill:url(#linear-gradient-40)"/><path d="M170.36 191.09a1.39 1.39 0 0 1-.64 1.1c-.35.21-.64 0-.64-.36a1.43 1.43 0 0 1 .64-1.11c.36-.2.64-.04.64.37Z" style="fill:url(#linear-gradient-41)"/><path d="M174 189a1.41 1.41 0 0 1-.64 1.1c-.35.21-.64 0-.64-.36a1.43 1.43 0 0 1 .64-1.11c.35-.21.64-.05.64.37Z" style="fill:url(#linear-gradient-42)"/><path d="M177.64 186.89A1.41 1.41 0 0 1 177 188c-.36.21-.64 0-.64-.36a1.41 1.41 0 0 1 .64-1.11c.35-.21.64-.05.64.36Z" style="fill:url(#linear-gradient-43)"/><path d="M181.28 184.79a1.4 1.4 0 0 1-.65 1.1c-.35.21-.64 0-.64-.36a1.43 1.43 0 0 1 .64-1.11c.37-.2.65-.04.65.37Z" style="fill:url(#linear-gradient-44)"/><path d="M170.36 195a1.41 1.41 0 0 1-.64 1.11c-.35.2-.64 0-.64-.37a1.41 1.41 0 0 1 .64-1.1c.36-.17.64 0 .64.36Z" style="fill:url(#linear-gradient-45)"/><path d="M174 192.94a1.43 1.43 0 0 1-.64 1.11c-.35.2-.64 0-.64-.37a1.41 1.41 0 0 1 .64-1.1c.35-.21.64-.04.64.36Z" style="fill:url(#linear-gradient-46)"/><path d="M177.64 190.84A1.43 1.43 0 0 1 177 192c-.36.2-.64 0-.64-.37a1.39 1.39 0 0 1 .64-1.1c.35-.26.64-.09.64.31Z" style="fill:url(#linear-gradient-47)"/><path d="M181.28 188.74a1.4 1.4 0 0 1-.65 1.11c-.35.2-.64 0-.64-.37a1.41 1.41 0 0 1 .64-1.1c.37-.21.65-.04.65.36Z" style="fill:url(#linear-gradient-48)"/><path style="fill:url(#linear-gradient-49)" d="m177.99 139.24-54.46 31.64-54.81-31.64 54.45-31.65 54.82 31.65z"/><path style="fill:url(#linear-gradient-50)" d="m177.99 139.24-.08 25.96-54.46 31.64.08-25.96 54.46-31.64z"/><path style="fill:url(#linear-gradient-51)" d="m123.53 170.88-.08 25.96-54.81-31.64.08-25.96 54.81 31.64z"/><g class="cls-1"><path style="fill:url(#linear-gradient-52)" d="m186.31 125.4-62.75 36.47-63.16-36.46 62.75-36.47 63.16 36.46z"/><path style="fill:url(#linear-gradient-53)" d="m186.31 125.4-.08 29.92-62.76 36.46.09-29.91 62.75-36.47z"/><path style="fill:url(#linear-gradient-54)" d="m163.38 141.13-37.75 21.94-.07 25.1 37.82-21.98v-25.06z"/><path style="fill:url(#linear-gradient-55)" d="M165.11 140.13v25.06l19.04-11.07.07-25.1-19.11 11.11z"/><path style="fill:url(#linear-gradient-56)" d="m123.56 161.87-.09 29.91-63.15-36.46.08-29.91 63.16 36.46z"/></g><path style="fill:url(#linear-gradient-57)" d="m139.95 160.84-8.57 4.94v1.16l8.57-4.94v-1.16z"/><path style="fill:url(#linear-gradient-58)" d="m145.84 157.43-5.39 3.12v1.16l5.39-3.11v-1.17z"/><path style="fill:url(#linear-gradient-59)" d="m154.75 152.29-8.41 4.86v1.16l8.41-4.85v-1.17z"/><path style="fill:url(#linear-gradient-60)" d="M155.24 152.01v1.16l1.56-.9v-1.16l-1.56.9z"/><path d="M136 167.42v-.06l-4.61 2.64v1.16l4.61-2.66Z" style="fill:url(#linear-gradient-61)"/><path d="M136.49 167.08v1.16L149 161v-1.16Z" style="fill:url(#linear-gradient-62)"/><path style="fill:url(#linear-gradient-63)" d="M149.48 159.58v1.16l7.32-4.22v-1.17l-7.32 4.23z"/><path style="fill:url(#linear-gradient-64)" d="m143.5 167.28-2.59 1.5v1.16l2.59-1.49v-1.17z"/><path style="fill:url(#linear-gradient-65)" d="M143.99 167v1.16l12.81-7.39v-1.17l-12.81 7.4z"/><path style="fill:url(#linear-gradient-66)" d="m140.42 169.06-9.04 5.22v1.16l9.04-5.21v-1.17z"/><path d="m150.86 167.28-19.47 11.25v1.16l19.46-11.24c0-.39.01-.78.01-1.17Z" style="fill:url(#linear-gradient-67)"/><path d="M151.35 167v1.17l5.45-3.17v-1.17Z" style="fill:url(#linear-gradient-68)"/><path d="M170.36 143.9a1.41 1.41 0 0 1-.64 1.11c-.35.2-.64 0-.64-.37a1.4 1.4 0 0 1 .64-1.1c.36-.21.64-.05.64.36Z" style="fill:url(#linear-gradient-69)"/><path d="M174 141.8a1.43 1.43 0 0 1-.64 1.11c-.35.2-.64 0-.64-.37a1.4 1.4 0 0 1 .64-1.1c.35-.21.64-.05.64.36Z" style="fill:url(#linear-gradient-70)"/><path d="M177.64 139.7a1.43 1.43 0 0 1-.64 1.11c-.36.2-.64 0-.64-.37a1.37 1.37 0 0 1 .64-1.1c.35-.21.64-.05.64.36Z" style="fill:url(#linear-gradient-71)"/><path d="M181.28 137.6a1.42 1.42 0 0 1-.65 1.11c-.35.2-.64 0-.64-.37a1.41 1.41 0 0 1 .64-1.1c.37-.24.65-.05.65.36Z" style="fill:url(#linear-gradient-72)"/><path d="M170.36 147.86a1.39 1.39 0 0 1-.64 1.1c-.35.21-.64 0-.64-.36a1.42 1.42 0 0 1 .64-1.11c.36-.2.64-.04.64.37Z" style="fill:url(#linear-gradient-73)"/><path d="M174 145.76a1.41 1.41 0 0 1-.64 1.1c-.35.21-.64 0-.64-.36a1.43 1.43 0 0 1 .64-1.11c.35-.2.64-.04.64.37Z" style="fill:url(#linear-gradient-74)"/><path d="M177.64 143.66a1.41 1.41 0 0 1-.64 1.1c-.36.21-.64 0-.64-.36a1.41 1.41 0 0 1 .64-1.11c.35-.2.64-.04.64.37Z" style="fill:url(#linear-gradient-75)"/><path d="M181.28 141.56a1.4 1.4 0 0 1-.65 1.1c-.35.21-.64 0-.64-.36a1.43 1.43 0 0 1 .64-1.11c.37-.19.65-.04.65.37Z" style="fill:url(#linear-gradient-76)"/><path d="M170.36 151.81a1.41 1.41 0 0 1-.64 1.11c-.35.2-.64 0-.64-.37a1.41 1.41 0 0 1 .64-1.1c.36-.21.64-.04.64.36Z" style="fill:url(#linear-gradient-77)"/><path d="M174 149.71a1.43 1.43 0 0 1-.64 1.11c-.35.2-.64 0-.64-.37a1.41 1.41 0 0 1 .64-1.1c.35-.21.64-.04.64.36Z" style="fill:url(#linear-gradient-78)"/><path d="M177.64 147.61a1.43 1.43 0 0 1-.64 1.11c-.36.2-.64 0-.64-.37a1.39 1.39 0 0 1 .64-1.1c.35-.25.64-.04.64.36Z" style="fill:url(#linear-gradient-79)"/><path d="M181.28 145.51a1.42 1.42 0 0 1-.65 1.11c-.35.2-.64 0-.64-.37a1.41 1.41 0 0 1 .64-1.1c.37-.21.65-.04.65.36Z" style="fill:url(#linear-gradient-80)"/><path d="M170.36 155.77a1.39 1.39 0 0 1-.64 1.1c-.35.21-.64 0-.64-.36a1.43 1.43 0 0 1 .64-1.11c.36-.2.64-.04.64.37Z" style="fill:url(#linear-gradient-81)"/><path d="M174 153.67a1.41 1.41 0 0 1-.64 1.1c-.35.21-.64 0-.64-.36a1.43 1.43 0 0 1 .64-1.11c.35-.2.64-.04.64.37Z" style="fill:url(#linear-gradient-82)"/><path d="M177.64 151.57a1.41 1.41 0 0 1-.64 1.1c-.36.21-.64 0-.64-.36a1.41 1.41 0 0 1 .64-1.11c.35-.2.64-.04.64.37Z" style="fill:url(#linear-gradient-83)"/><path d="M181.28 149.47a1.4 1.4 0 0 1-.65 1.1c-.35.21-.64 0-.64-.36a1.43 1.43 0 0 1 .64-1.11c.37-.2.65-.04.65.37Z" style="fill:url(#linear-gradient-84)"/><path style="fill:url(#linear-gradient-85)" d="m177.99 99.96-54.46 31.65-54.81-31.65 54.45-31.64 54.82 31.64z"/><path style="fill:url(#linear-gradient-86)" d="m177.99 99.96-.08 25.96-54.46 31.65.08-25.96 54.46-31.65z"/><path style="fill:url(#linear-gradient-87)" d="m123.53 131.61-.08 25.96-54.81-31.65.08-25.96 54.81 31.65z"/><g class="cls-1"><path style="fill:url(#linear-gradient-88)" d="m186.31 86.13-62.75 36.46L60.4 86.13l62.75-36.47 63.16 36.47z"/><path style="fill:url(#linear-gradient-89)" d="m186.31 86.13-.08 29.91-62.76 36.47.09-29.92 62.75-36.46z"/><path style="fill:url(#linear-gradient-90)" d="m163.38 101.86-37.75 21.93-.07 25.1 37.82-21.98v-25.05z"/><path style="fill:url(#linear-gradient-91)" d="M165.11 100.85v25.06l19.04-11.07.07-25.1-19.11 11.11z"/><path style="fill:url(#linear-gradient-92)" d="m123.56 122.59-.09 29.92-63.15-36.47.08-29.91 63.16 36.46z"/></g><path style="fill:url(#linear-gradient-93)" d="m139.95 121.56-8.57 4.94v1.17l8.57-4.95v-1.16z"/><path style="fill:url(#linear-gradient-94)" d="m145.84 118.16-5.39 3.11v1.17l5.39-3.12v-1.16z"/><path style="fill:url(#linear-gradient-95)" d="m154.75 113.02-8.41 4.85v1.16l8.41-4.85v-1.16z"/><path style="fill:url(#linear-gradient-96)" d="M155.24 112.73v1.16l1.56-.9v-1.16l-1.56.9z"/><path d="M136 128.15v-.06l-4.61 2.66v1.17l4.61-2.67Z" style="fill:url(#linear-gradient-97)"/><path d="M136.49 127.8v1.2l12.51-7.25v-1.16Z" style="fill:url(#linear-gradient-98)"/><path style="fill:url(#linear-gradient-99)" d="M149.48 120.3v1.17l7.32-4.23v-1.16l-7.32 4.22z"/><path style="fill:url(#linear-gradient-100)" d="m143.5 128.01-2.59 1.49v1.16l2.59-1.49v-1.16z"/><path style="fill:url(#linear-gradient-101)" d="M143.99 127.72v1.17l12.81-7.4v-1.16l-12.81 7.39z"/><path style="fill:url(#linear-gradient-102)" d="m140.42 129.79-9.04 5.21v1.17l9.04-5.22v-1.16z"/><path d="m150.86 128-19.47 11.24v1.17l19.46-11.24c0-.38.01-.77.01-1.17Z" style="fill:url(#linear-gradient-103)"/><path d="M151.35 127.72v1.17l5.46-3.15v-1.16Z" style="fill:url(#linear-gradient-104)"/><path d="M170.36 104.62a1.39 1.39 0 0 1-.64 1.11c-.35.21-.64 0-.64-.37a1.41 1.41 0 0 1 .64-1.1c.36-.21.64-.04.64.36Z" style="fill:url(#linear-gradient-105)"/><path d="M174 102.52a1.42 1.42 0 0 1-.64 1.11c-.35.21-.64 0-.64-.36a1.42 1.42 0 0 1 .64-1.11c.35-.16.64-.04.64.36Z" style="fill:url(#linear-gradient-106)"/><path d="M177.64 100.42a1.42 1.42 0 0 1-.64 1.11c-.36.21-.64 0-.64-.36a1.39 1.39 0 0 1 .64-1.11c.35-.21.64-.06.64.36Z" style="fill:url(#linear-gradient-107)"/><path d="M181.28 98.32a1.4 1.4 0 0 1-.65 1.11c-.35.21-.64 0-.64-.36a1.42 1.42 0 0 1 .64-1.11c.37-.21.65-.04.65.36Z" style="fill:url(#linear-gradient-108)"/><path d="M170.36 108.58a1.41 1.41 0 0 1-.64 1.11c-.35.2-.64 0-.64-.37a1.43 1.43 0 0 1 .64-1.11c.36-.21.64-.04.64.37Z" style="fill:url(#linear-gradient-109)"/><path d="M174 106.48a1.43 1.43 0 0 1-.64 1.11c-.35.2-.64 0-.64-.37a1.43 1.43 0 0 1 .64-1.11c.35-.2.64-.04.64.37Z" style="fill:url(#linear-gradient-110)"/><path d="M177.64 104.38a1.43 1.43 0 0 1-.64 1.11c-.36.2-.64 0-.64-.37A1.41 1.41 0 0 1 177 104c.35-.19.64 0 .64.38Z" style="fill:url(#linear-gradient-111)"/><path d="M181.28 102.28a1.42 1.42 0 0 1-.65 1.11c-.35.2-.64 0-.64-.37a1.43 1.43 0 0 1 .64-1.11c.37-.2.65-.04.65.37Z" style="fill:url(#linear-gradient-112)"/><path d="M170.36 112.54a1.39 1.39 0 0 1-.64 1.1c-.35.21-.64 0-.64-.36a1.42 1.42 0 0 1 .64-1.11c.36-.17.64-.04.64.37Z" style="fill:url(#linear-gradient-113)"/><path d="M174 110.44a1.41 1.41 0 0 1-.64 1.1c-.35.21-.64 0-.64-.36a1.42 1.42 0 0 1 .64-1.11c.35-.2.64-.07.64.37Z" style="fill:url(#linear-gradient-114)"/><path d="M177.64 108.34a1.41 1.41 0 0 1-.64 1.1c-.36.21-.64 0-.64-.36A1.39 1.39 0 0 1 177 108c.35-.23.64-.07.64.34Z" style="fill:url(#linear-gradient-115)"/><path d="M181.28 106.24a1.4 1.4 0 0 1-.65 1.1c-.35.21-.64 0-.64-.36a1.42 1.42 0 0 1 .64-1.11c.37-.2.65-.04.65.37Z" style="fill:url(#linear-gradient-116)"/><path d="M170.36 116.49a1.41 1.41 0 0 1-.64 1.11c-.35.2-.64 0-.64-.37a1.4 1.4 0 0 1 .64-1.1c.36-.21.64-.05.64.36Z" style="fill:url(#linear-gradient-117)"/><path d="M174 114.39a1.43 1.43 0 0 1-.64 1.11c-.35.2-.64 0-.64-.37a1.4 1.4 0 0 1 .64-1.1c.35-.21.64-.03.64.36Z" style="fill:url(#linear-gradient-118)"/><path d="M177.64 112.29a1.43 1.43 0 0 1-.64 1.11c-.36.2-.64 0-.64-.37a1.37 1.37 0 0 1 .64-1.1c.35-.21.64-.05.64.36Z" style="fill:url(#linear-gradient-119)"/><path d="M181.28 110.19a1.42 1.42 0 0 1-.65 1.11c-.35.2-.64 0-.64-.37a1.41 1.41 0 0 1 .64-1.1c.37-.21.65-.05.65.36Z" style="fill:url(#linear-gradient-120)"/><path style="fill:url(#linear-gradient-121)" d="m158.16 301.65-6.67 7.61-.03 13.36 6.66-7.62.04-13.35z"/><path d="M112.2 329.31v-.39a1.06 1.06 0 0 1 0-.19 1.17 1.17 0 0 1 0-.2 1.05 1.05 0 0 1 .05-.19c0-.07 0-.14.07-.2a1.07 1.07 0 0 1 .07-.19l.09-.21.08-.18.11-.21.1-.17c0-.08.1-.17.15-.25l.1-.15.2-.27a.94.94 0 0 1 .09-.12c.11-.14.23-.29.36-.43l.1-.1.32-.32a1.07 1.07 0 0 1 .16-.14l.2-.18.19-.16.22-.17.21-.16.24-.17.22-.15.26-.16a3.62 3.62 0 0 1 .33-.2c.3-.18.62-.34.94-.5l.26-.12c.3-.14.6-.26.9-.38l.12-.05c.33-.13.67-.24 1-.35l.73-.21.55-.15.78-.16.57-.12h.23l1-.13h.28c.38 0 .76-.07 1.15-.09h3.92l.7.08.63.09.75.13c.19 0 .39.07.58.12s.59.13.87.21l.56.15.3.09c.29.09.58.19.86.3l.24.09c.26.09.5.2.75.31l.36.16c.36.17.7.35 1 .54 2.78 1.6 4.16 3.7 4.16 5.8v-13.35c0-2.1-1.37-4.2-4.15-5.8-.33-.2-.68-.37-1-.54l-.37-.16-.63-.28h-.11l-.25-.09-.85-.29-.3-.09-.2-.06c-.11 0-.24-.06-.36-.09l-.87-.22h-.23l-.35-.06c-.25-.05-.5-.1-.75-.13l-.3-.06h-.33l-.7-.08h-3.77l-1 .08h-.46l-1 .14h-.35l-.45.09-.78.17-.55.15c-.25.07-.49.13-.73.21h-.15c-.29.09-.58.2-.86.3l-.12.05q-.47.18-.9.39l-.26.12-1 .5-.17.1-.15.1-.26.16-.22.15-.24.17-.21.15-.22.18-.19.16-.21.17-.08.08-.07.07-.32.31-.1.11c-.13.14-.25.28-.37.43l-.08.11-.19.27-.1.15a2.13 2.13 0 0 0-.16.25.43.43 0 0 0 0 .07v.1a2.12 2.12 0 0 0-.11.21 1.42 1.42 0 0 0-.08.18 1 1 0 0 0-.09.21.3.3 0 0 0 0 .1v.08a1.72 1.72 0 0 0-.07.21 1.21 1.21 0 0 0 0 .18 1.6 1.6 0 0 0 0 .21v.11a.17.17 0 0 0 0 .07 1.55 1.55 0 0 0 0 .21 1.11 1.11 0 0 1 0 .19 1.48 1.48 0 0 0 0 .21.53.53 0 0 0 0 .13v13.47a2.18 2.18 0 0 1 0-.25c-.3-.12-.29-.19-.29-.26Z" style="fill:url(#linear-gradient-122)"/><path d="m164.46 325.08-14.74.44c-.23.21-.48.42-.74.62l-.25.19-.54.4-.33.23c-.17.12-.34.24-.52.35l-.37.24-.72.44c-.66.38-1.34.74-2.05 1.08s-1.44.64-2.18.93l-.72 8.53-8.72 1.35-8.07-7.17-1.89-.11-.52-.05-.7-.06-.66-.08-.69-.08-.65-.09-.73-.12-.67-.12-.73-.13-.6-.12-.93-.22-.46-.1-1.28-.33h-.07l-12.89 3.82v-11.24a11.57 11.57 0 0 1-2.86-6.12l-12.41-4.65v13.35l12.41 4.65a10.15 10.15 0 0 0 .88 3.06l-4.64-2.68v13.36l6.4 3.69 13.13-3.88h.05c.43.13.87.24 1.31.35l.46.11.93.21h.18l.42.08.74.14.62.1.73.12h.26l.39.05.69.09.66.07.7.07h.52c.63.05 1.26.09 1.89.11l8.08 7.18 8.71-1.36.72-8.53a30 30 0 0 0 4.23-2l.41-.24.31-.2.37-.23.52-.36.33-.22.54-.4.26-.2c.25-.2.5-.4.74-.61l14.73-.44 2.31-5.05v-13.36Z" style="fill:url(#linear-gradient-123)"/><path d="M146.25 328a31.08 31.08 0 0 1-4.23 2l-.72 8.54-8.72 1.35-8.07-7.17a44.77 44.77 0 0 1-10.57-1.64L100.82 335l-6.4-3.7 6.66-7.61a11.57 11.57 0 0 1-2.86-6.12l-12.41-4.65 2.3-5.05 14.74-.45a22.64 22.64 0 0 1 3.47-2.46 31.88 31.88 0 0 1 4.24-2l.71-8.53L120 293l8.07 7.18a45.29 45.29 0 0 1 10.57 1.63l13.11-3.81 6.41 3.7-6.67 7.61a11.47 11.47 0 0 1 2.86 6.12l12.41 4.57-2.3 5.05-14.74.44a22.67 22.67 0 0 1-3.47 2.51Zm-29.88-5.77c5.51 3.18 14.42 3.18 19.9 0s5.44-8.34-.07-11.52-14.42-3.19-19.9 0-5.44 8.34.07 11.52" style="fill:url(#linear-gradient-124)"/><path style="fill:url(#linear-gradient-125)" d="m188.39 343.74-3.69 4.21-.02 7.4 3.69-4.22.02-7.39z"/><path d="M163 359.05v-.53a.56.56 0 0 1 0-.12v-.1a.61.61 0 0 1 .05-.12v-.09l.06-.12a.31.31 0 0 0 .05-.1l.09-.13v-.09l.11-.15v-.06c.07-.08.13-.16.21-.24l.05-.06.18-.17.08-.08.12-.1.1-.09.12-.1.12-.08.13-.1.13-.08.14-.09.18-.11.52-.28.15-.06.5-.22h.06l.56-.19c.13-.05.27-.08.4-.12l.31-.08c.14 0 .28-.06.43-.09l.31-.07h.13l.54-.07h.16l.63-.06h2.48l.35.05.41.07.32.07.49.11.3.09.17.05.47.16.14.05.41.17.2.09c.2.1.39.19.57.3 1.54.89 2.31 2.05 2.3 3.21v-7.39a3.87 3.87 0 0 0-2.3-3.21 5.12 5.12 0 0 0-.57-.3l-.2-.09-.35-.15h-.06l-.14-.05-.47-.16-.16-.06h-.11l-.2-.05-.49-.12h-.32l-.41-.07a1 1 0 0 0-.17 0h-.18l-.39-.05h-2.88l-.54.08h-.2l-.25.05-.43.1-.31.08-.4.11h-.08l-.48.16h-.06l-.5.21-.14.07c-.18.09-.36.18-.53.28l-.1.05-.08.06-.14.09-.13.08-.13.09-.11.09-.13.1-.1.09-.12.09-.18.18v.06l-.21.23v.06l-.11.15a.22.22 0 0 1-.05.08l-.09.14v.06l-.06.11a1 1 0 0 1 0 .1.61.61 0 0 0-.05.12s0 0 0 .05v.39c0 .06 0 0 0 0v7.87-.14s-.12.13-.12.09Z" style="fill:url(#linear-gradient-126)"/><path d="m191.88 356.71-8.16.25-.41.34-.14.1-.3.23-.18.12-.29.2-.2.13-.4.24q-.56.31-1.14.6c-.39.18-.79.36-1.21.52l-.39 4.72-4.83.75-4.47-4c-.35 0-.7 0-1-.06h-1.43l-.36-.05-.4-.07-.35-.05-.4-.08-.33-.07-.52-.11-.26-.06-.71-.36-7.14 2.12v-6.23a6.43 6.43 0 0 1-1.58-3.38l-6.94-2.51v7.39l6.87 2.58a5.79 5.79 0 0 0 .48 1.69l-2.57-1.48v7.39l3.55 2.05 7.26-2.15.72.19.26.06.52.11h.33l.4.08.35.06.4.06h.36l.38.05h1.05c.34 0 .69.05 1 .06l4.47 4 4.83-.74.39-4.73a15.9 15.9 0 0 0 2.35-1.12l.22-.13.18-.11.2-.13.29-.19.18-.13.3-.22.14-.11.41-.34 8.16-.25 1.27-2.79v-7.39Z" style="fill:url(#linear-gradient-127)"/><path d="M181.8 358.32a17 17 0 0 1-2.35 1.12l-.39 4.72-4.83.75-4.47-4a25 25 0 0 1-5.85-.91l-7.26 2.16-3.55-2.05 3.69-4.22a6.43 6.43 0 0 1-1.58-3.38l-6.87-2.51 1.27-2.8 8.16-.24a12.07 12.07 0 0 1 1.92-1.36 15.9 15.9 0 0 1 2.35-1.12l.39-4.73 4.83-.75 4.47 4a25 25 0 0 1 5.85.9l7.26-2.15 3.55 2.05-3.69 4.2a6.35 6.35 0 0 1 1.58 3.39l6.87 2.58-1.27 2.79-8.16.25a12.07 12.07 0 0 1-1.92 1.31Zm-16.54-3.19a12.14 12.14 0 0 0 11 0c3-1.76 3-4.62 0-6.38a12.14 12.14 0 0 0-11 0c-3 1.76-3 4.62 0 6.38" style="fill:url(#linear-gradient-128)"/><path style="fill:url(#linear-gradient-129)" d="m92.59 294.32 10.51 8.99 9.99 5.81-10.51-8.99-9.99-5.81z"/><path d="M135.84 226c-1.39-.81-3.32-.69-5.45.54l-45 26a16.82 16.82 0 0 0-7.64 13.22l.08 28.24c0 2.42.86 4.12 2.24 4.92l10 5.81c-1.37-.8-2.23-2.5-2.23-4.92l-.08-28.32c0-4.87 3.4-10.78 7.64-13.23l45-26c2.13-1.22 4.06-1.34 5.45-.53Z" style="fill:url(#linear-gradient-130)"/><path d="M140.38 232.3c4.23-2.44 7.67-.48 7.69 4.38l.08 28.32a16.84 16.84 0 0 1-7.64 13.23l-27.46 15.86v15l-10.51-9-7.06 4.08c-4.24 2.44-7.68.48-7.69-4.38l-.08-28.32c0-4.87 3.4-10.78 7.64-13.23Z" style="fill:#a59df6"/><path class="cls-20" d="M103.77 276.16a6.42 6.42 0 0 1-2.91 5c-1.61.93-2.91.19-2.91-1.66a6.38 6.38 0 0 1 2.91-5c1.61-.93 2.91-.19 2.91 1.66Zm11.13-6.43a6.42 6.42 0 0 1-2.91 5c-1.61.93-2.92.18-2.92-1.66a6.43 6.43 0 0 1 2.92-5c1.61-.93 2.91-.18 2.91 1.66Zm11.1-6.42a6.41 6.41 0 0 1-2.92 5c-1.61.93-2.91.19-2.91-1.66a6.42 6.42 0 0 1 2.91-5c1.64-.93 2.92-.19 2.92 1.66Zm11.16-6.43a6.43 6.43 0 0 1-2.92 5c-1.61.93-2.91.19-2.91-1.66a6.42 6.42 0 0 1 2.91-5c1.61-.93 2.92-.22 2.92 1.66Z"/><g class="cls-1"><path d="M369.2 179.51v13c0 5.74-3.79 11.46-11.31 15.83-15.15 8.8-39.79 8.8-55 0-7.67-4.43-11.5-10.24-11.49-16.05v-13c0 5.81 3.82 11.62 11.49 16.05 15.24 8.8 39.89 8.8 55 0 7.53-4.34 11.3-10.1 11.31-15.83Z" style="fill:url(#linear-gradient-131)"/><ellipse cx="330.29" cy="179.4" rx="22.54" ry="38.92" transform="rotate(-89.84 330.277 179.405)" style="fill:url(#linear-gradient-132)"/></g><path d="m343.9 164.52-30.85 4.72a4.4 4.4 0 0 0-1.53 8.16l22.67 13.09a4.4 4.4 0 0 0 6.2-2l8.18-17.81a4.4 4.4 0 0 0-4.67-6.16Z" style="fill:url(#linear-gradient-133)"/><path d="m308 401.12-36.51 21.21a10.16 10.16 0 0 1-9.22 0l-72-41.63a3.28 3.28 0 0 1-1.87-2.7v5.33a3.26 3.26 0 0 0 1.93 2.69l72 41.63a10.13 10.13 0 0 0 9.22 0L308 406.46a3.26 3.26 0 0 0 1.9-2.65v-5.34a3.23 3.23 0 0 1-1.9 2.65Z" style="fill:url(#linear-gradient-134)"/><path d="M308 395.78c2.55 1.48 2.57 3.86 0 5.34l-36.51 21.21a10.16 10.16 0 0 1-9.22 0l-72-41.63c-2.56-1.48-2.57-3.87 0-5.35l36.5-21.21a10.16 10.16 0 0 1 9.22 0Z" style="fill:url(#linear-gradient-135)"/><path d="m303.06 395.44-67.51-38.79a9 9 0 0 0-8.19 0l-4.84 2.82.59.64a1.56 1.56 0 0 1-.38 2.39l-13.08 7.56a1.6 1.6 0 0 1-1.23.14l-2.87-.87-10.61 6.16c-2.25 1.32-2.24 3.44 0 4.75L262.48 419a9 9 0 0 0 8.19 0l32.42-18.84c2.26-1.29 2.24-3.41-.03-4.72Z" style="fill:url(#linear-gradient-136)"/><path class="cls-14" d="m236.97 206.07-2.8-57.97"/><path d="M267.83 107.33c-2.68-1.57-6.41-1.35-10.51 1a21.42 21.42 0 0 0-2 1.33l5.27 3.07a21.54 21.54 0 0 1 2-1.34c4.11-2.37 7.83-2.59 10.52-1Z" style="fill:url(#linear-gradient-137)"/><path d="M251 98.59c-2.69-1.56-6.41-1.34-10.51 1-7.18 4.15-13.15 13.48-14.47 22a20.52 20.52 0 0 0-2.4 1.19 34.44 34.44 0 0 0-12 12.64 9.6 9.6 0 0 0-4.26 1.4c-5.72 3.3-10.34 11.29-10.32 17.86a8.28 8.28 0 0 0 1.8 5.63 16.3 16.3 0 0 0-2 7.35c0 2.61.93 4.44 2.41 5.3l5.27 3.07c-1.48-.87-2.4-2.7-2.41-5.3a16.42 16.42 0 0 1 2-7.35 8.31 8.31 0 0 1-1.79-5.64c0-6.56 4.6-14.56 10.31-17.86a9.77 9.77 0 0 1 4.26-1.4c3.06-5.3 7.29-9.93 12-12.63a20 20 0 0 1 2.41-1.2c1.31-8.56 7.28-17.9 14.46-22 4.1-2.37 7.83-2.59 10.52-1Z" style="fill:url(#linear-gradient-138)"/><path d="M245.8 102.69c8.16-4.71 14.8-.93 14.83 8.45 0 .53 0 1.07-.07 1.62a21.54 21.54 0 0 1 2-1.34c8.16-4.71 14.8-.93 14.83 8.45s-6.57 20.8-14.73 25.52l-52.21 30.14c-4.56 2.63-8.27.52-8.29-4.72a16.42 16.42 0 0 1 2-7.35 8.31 8.31 0 0 1-1.79-5.64c0-6.56 4.6-14.56 10.31-17.86a9.77 9.77 0 0 1 4.26-1.4c3.06-5.3 7.29-9.93 12-12.63a20 20 0 0 1 2.41-1.2c1.3-8.56 7.27-17.9 14.45-22.04Z" style="fill:url(#linear-gradient-139)"/><path d="M281.53 112.28c-2.27-1.32-5.41-1.13-8.88.87a17.9 17.9 0 0 0-1.71 1.12l4.45 2.59a20.18 20.18 0 0 1 1.71-1.13c3.47-2 6.61-2.18 8.88-.87Z" style="fill:url(#linear-gradient-140)"/><path d="M267.36 104.91c-2.27-1.32-5.41-1.13-8.88.87-6.05 3.49-11.09 11.37-12.2 18.6a16.64 16.64 0 0 0-2 1 29.1 29.1 0 0 0-10.1 10.66 8.18 8.18 0 0 0-3.59 1.18c-4.83 2.78-8.72 9.53-8.71 15.07a7 7 0 0 0 1.52 4.75 13.85 13.85 0 0 0-1.68 6.21c0 2.19.78 3.74 2 4.47l4.45 2.58c-1.25-.73-2-2.27-2-4.47a13.82 13.82 0 0 1 1.68-6.2 7 7 0 0 1-1.52-4.75c0-5.55 3.88-12.29 8.71-15.07a8.2 8.2 0 0 1 3.59-1.19A29.18 29.18 0 0 1 248.7 128a16.52 16.52 0 0 1 2-1c1.11-7.23 6.15-15.11 12.2-18.61 3.47-2 6.61-2.18 8.88-.86Z" style="fill:url(#linear-gradient-141)"/><path d="M262.93 108.36c6.89-4 12.49-.78 12.52 7.13 0 .46 0 .91-.06 1.37a20.18 20.18 0 0 1 1.71-1.13c6.89-4 12.49-.78 12.51 7.13s-5.54 17.56-12.43 21.53l-44.05 25.44c-3.85 2.22-7 .43-7-4a13.82 13.82 0 0 1 1.68-6.2 7 7 0 0 1-1.52-4.75c0-5.55 3.88-12.29 8.71-15.07a8.2 8.2 0 0 1 3.59-1.19A29.18 29.18 0 0 1 248.7 128a16.52 16.52 0 0 1 2-1c1.14-7.26 6.18-15.14 12.23-18.64Z" style="fill:url(#linear-gradient-142)"/><path d="m345.39 302.49 86.85-50.14c2.3-1.33 4.19-4.93 4.19-8v-69.63c0-3.07-1.89-4.5-4.19-3.17l-86.85 50.14c-2.3 1.33-4.19 4.93-4.19 8v69.64c0 3.07 1.89 4.49 4.19 3.16Z" style="fill:url(#linear-gradient-143)"/><path d="m345.72 221.5 86.19-49.76c2.49-1.43 4.52-.28 4.52 2.57v8.6l-95.23 55v-8.59a10 10 0 0 1 4.52-7.82Z" style="fill:url(#linear-gradient-144)"/><path d="M425.37 182.32c0 1.09.76 1.52 1.7 1a3.77 3.77 0 0 0 1.71-3c0-1.08-.76-1.52-1.71-1a3.75 3.75 0 0 0-1.7 3Z" style="fill:url(#linear-gradient-145)"/><path d="M418.48 186.3c0 1.08.76 1.52 1.71 1a3.75 3.75 0 0 0 1.7-2.94c0-1.08-.76-1.52-1.7-1a3.73 3.73 0 0 0-1.71 2.94Z" style="fill:url(#linear-gradient-146)"/><path d="M411.59 190.28c0 1.08.76 1.51 1.71 1a3.75 3.75 0 0 0 1.7-2.94c0-1.09-.76-1.52-1.7-1a3.77 3.77 0 0 0-1.71 2.94Z" style="fill:url(#linear-gradient-147)"/><path class="cls-20" d="m352 291.07 77.31-46.26a6.39 6.39 0 0 0 2.66-5.07v-44.18c0-1.94-1.2-2.85-2.66-2L352 239.82a6.37 6.37 0 0 0-2.66 5.07v44.18c.02 1.93 1.22 2.85 2.66 2Z"/><g class="cls-1"><path style="fill:url(#linear-gradient-148)" d="m301.3 361.9 106.24-61.74 65.88 38.03-106.24 61.74-65.88-38.03z"/><path style="fill:url(#linear-gradient-149)" d="m367.18 399.93 106.24-61.74-.02 5.49-106.24 61.74.02-5.49z"/><path style="fill:url(#linear-gradient-150)" d="m301.51 284.18-.21 77.72 65.88 38.03-.02 5.49-70.65-40.79.23-83.21 4.77 2.76z"/><path style="fill:url(#linear-gradient-151)" d="m301.51 284.18 106.24-61.74-.21 77.72L301.3 361.9l.21-77.72z"/><path style="fill:url(#linear-gradient-152)" d="m304.87 286.12 99.5-57.82-.19 69.92-99.5 57.82.19-69.92z"/><path style="fill:url(#linear-gradient-153)" d="m296.74 281.42 106.24-61.73 4.77 2.75-106.24 61.74-4.77-2.76z"/></g><path style="fill:url(#linear-gradient-154)" d="m319.82 359.31-4.42 2.56 4.45 2.57 4.43-2.56-4.46-2.57z"/><path style="fill:url(#linear-gradient-155)" d="m326.08 360.84 4.43-2.55-4.45-2.58-4.43 2.56 4.45 2.57z"/><path style="fill:url(#linear-gradient-156)" d="m332.31 357.24 4.43-2.55-4.45-2.57-4.43 2.55 4.45 2.57z"/><path style="fill:url(#linear-gradient-157)" d="m338.55 353.65 4.42-2.56-4.45-2.57-4.43 2.55 4.46 2.58z"/><path style="fill:url(#linear-gradient-158)" d="m344.75 344.92-4.43 2.56 4.45 2.57 4.43-2.56-4.45-2.57z"/><path style="fill:url(#linear-gradient-159)" d="m350.98 341.32-4.43 2.56 4.46 2.57 4.42-2.55-4.45-2.58z"/><path style="fill:url(#linear-gradient-160)" d="m357.21 337.73-4.43 2.55 4.46 2.58 4.42-2.56-4.45-2.57z"/><path style="fill:url(#linear-gradient-161)" d="m363.44 334.13-4.43 2.56 4.46 2.57 4.42-2.56-4.45-2.57z"/><path style="fill:url(#linear-gradient-162)" d="m369.67 330.53-4.43 2.56 4.46 2.57 4.42-2.56-4.45-2.57z"/><path style="fill:url(#linear-gradient-163)" d="m375.9 326.94-4.43 2.55 4.46 2.57 4.43-2.55-4.46-2.57z"/><path style="fill:url(#linear-gradient-164)" d="m382.16 328.47 4.42-2.56-4.45-2.57-4.43 2.55 4.46 2.58z"/><path style="fill:url(#linear-gradient-165)" d="m388.39 324.87 4.43-2.56-4.46-2.57-4.43 2.56 4.46 2.57z"/><path style="fill:url(#linear-gradient-166)" d="m394.62 321.27 4.43-2.55-4.46-2.58-4.43 2.56 4.46 2.57z"/><path style="fill:url(#linear-gradient-167)" d="m400.85 317.67 4.43-2.55-4.46-2.57-4.43 2.55 4.46 2.57z"/><path style="fill:url(#linear-gradient-168)" d="m402.63 311.5 4.45 2.58 4.43-2.56-4.46-2.57-4.42 2.55z"/><path style="fill:url(#linear-gradient-169)" d="m333.14 364.92 4.43-2.56-4.45-2.57-4.43 2.55 4.45 2.58z"/><path style="fill:url(#linear-gradient-170)" d="m339.37 361.32 4.43-2.56-4.45-2.57-4.43 2.56 4.45 2.57z"/><path style="fill:url(#linear-gradient-171)" d="m345.6 357.72 4.43-2.55-4.45-2.58-4.43 2.56 4.45 2.57z"/><path style="fill:url(#linear-gradient-172)" d="m351.81 349-4.43 2.55 4.45 2.57 4.43-2.55-4.45-2.57z"/><path style="fill:url(#linear-gradient-173)" d="m358.04 345.4-4.43 2.55 4.45 2.58 4.43-2.56-4.45-2.57z"/><path style="fill:url(#linear-gradient-174)" d="m364.27 341.8-4.43 2.56 4.46 2.57 4.42-2.56-4.45-2.57z"/><path style="fill:url(#linear-gradient-175)" d="m370.5 338.2-4.43 2.56 4.45 2.57 4.43-2.55-4.45-2.58z"/><path style="fill:url(#linear-gradient-176)" d="m376.73 334.61-4.43 2.55 4.46 2.58 4.42-2.56-4.45-2.57z"/><path style="fill:url(#linear-gradient-177)" d="m382.96 331.01-4.43 2.56 4.46 2.57 4.42-2.56-4.45-2.57z"/><path style="fill:url(#linear-gradient-178)" d="m389.22 332.54 4.42-2.55-4.45-2.58-4.43 2.56 4.46 2.57z"/><path style="fill:url(#linear-gradient-179)" d="m395.45 328.94 4.42-2.55-4.45-2.57-4.43 2.55 4.46 2.57z"/><path style="fill:url(#linear-gradient-180)" d="m401.68 325.35 4.43-2.56-4.46-2.57-4.43 2.55 4.46 2.58z"/><path style="fill:url(#linear-gradient-181)" d="m407.91 321.75 4.42-2.56-4.45-2.57-4.43 2.56 4.46 2.57z"/><path style="fill:url(#linear-gradient-182)" d="m414.14 318.15 4.43-2.55-4.46-2.58-4.43 2.56 4.46 2.57z"/><path style="fill:url(#linear-gradient-183)" d="m335.75 366.42-1.81 1.04-7.06-4.08-4.42 2.56 7.06 4.08 2.13 1.23 2.32 1.34 6.23-3.6 3.25-1.87 1.18-.68-4.46-2.58-1.18.69-3.24 1.87z"/><path style="fill:url(#linear-gradient-184)" d="m346.43 365.39 4.43-2.55-4.46-2.57-4.42 2.55 4.45 2.57z"/><path style="fill:url(#linear-gradient-185)" d="m352.66 361.8 4.43-2.56-4.46-2.57-4.42 2.56 4.45 2.57z"/><path style="fill:url(#linear-gradient-186)" d="m358.87 353.07-4.43 2.56 4.45 2.57 4.43-2.56-4.45-2.57z"/><path style="fill:url(#linear-gradient-187)" d="m365.1 349.48-4.43 2.55 4.45 2.57 4.43-2.55-4.45-2.57z"/><path style="fill:url(#linear-gradient-188)" d="m371.33 345.88-4.43 2.55 4.45 2.57 4.43-2.55-4.45-2.57z"/><path style="fill:url(#linear-gradient-189)" d="m377.56 342.28-4.43 2.56 4.45 2.57 4.43-2.56-4.45-2.57z"/><path style="fill:url(#linear-gradient-190)" d="m383.79 338.68-4.43 2.56 4.45 2.57 4.43-2.56-4.45-2.57z"/><path style="fill:url(#linear-gradient-191)" d="m390.02 335.09-4.43 2.55 4.46 2.57 4.42-2.55-4.45-2.57z"/><path style="fill:url(#linear-gradient-192)" d="m396.28 336.62 4.42-2.56-4.45-2.57-4.43 2.56 4.46 2.57z"/><path style="fill:url(#linear-gradient-193)" d="m402.51 333.02 4.42-2.56-4.45-2.57-4.43 2.56 4.46 2.57z"/><path style="fill:url(#linear-gradient-194)" d="m408.74 329.42 4.42-2.55-4.45-2.58-4.43 2.56 4.46 2.57z"/><path style="fill:url(#linear-gradient-195)" d="m414.97 325.82 4.42-2.55-4.45-2.57-4.43 2.55 4.46 2.57z"/><path style="fill:url(#linear-gradient-196)" d="m421.2 322.23 4.43-2.56-4.46-2.57-4.43 2.56 4.46 2.57z"/><path style="fill:url(#linear-gradient-197)" d="m341.03 376.66 4.43-2.55-4.46-2.57-4.43 2.55 4.46 2.57z"/><path style="fill:url(#linear-gradient-198)" d="m347.26 373.07 4.43-2.56-4.46-2.57-4.42 2.56 4.45 2.57z"/><path style="fill:url(#linear-gradient-199)" d="m353.49 369.47 4.43-2.56-4.46-2.57-4.42 2.56 4.45 2.57z"/><path style="fill:url(#linear-gradient-200)" d="m359.72 365.87 4.43-2.55-4.46-2.57-4.42 2.55 4.45 2.57z"/><path style="fill:url(#linear-gradient-201)" d="m365.92 357.15-4.42 2.55 4.45 2.57 4.43-2.55-4.46-2.57z"/><path style="fill:url(#linear-gradient-202)" d="m372.15 353.55-4.42 2.56 4.45 2.57 4.43-2.56-4.46-2.57z"/><path style="fill:url(#linear-gradient-203)" d="m378.38 349.95-4.42 2.56 4.45 2.57 4.43-2.56-4.46-2.57z"/><path style="fill:url(#linear-gradient-204)" d="m384.62 346.36-4.43 2.55 4.45 2.57 4.43-2.55-4.45-2.57z"/><path style="fill:url(#linear-gradient-205)" d="m390.85 342.76-4.43 2.55 4.45 2.58 4.43-2.56-4.45-2.57z"/><path style="fill:url(#linear-gradient-206)" d="m397.08 339.16-4.43 2.56 4.45 2.57 4.43-2.56-4.45-2.57z"/><path style="fill:url(#linear-gradient-207)" d="m403.33 340.69 4.43-2.55-4.45-2.58-4.43 2.56 4.45 2.57z"/><path style="fill:url(#linear-gradient-208)" d="m409.56 337.1 4.43-2.56-4.45-2.57-4.43 2.55 4.45 2.58z"/><path style="fill:url(#linear-gradient-209)" d="m415.8 333.5 4.42-2.56-4.45-2.57-4.43 2.56 4.46 2.57z"/><path style="fill:url(#linear-gradient-210)" d="m422.03 329.9 4.42-2.55-4.45-2.58-4.43 2.56 4.46 2.57z"/><path style="fill:url(#linear-gradient-211)" d="m428.26 326.3 4.42-2.55-4.45-2.57-4.43 2.55 4.46 2.57z"/><path style="fill:url(#linear-gradient-212)" d="m348.09 380.74 4.42-2.56-4.45-2.57-4.43 2.56 4.46 2.57z"/><path style="fill:url(#linear-gradient-213)" d="m354.32 377.14 4.43-2.55-4.46-2.58-4.43 2.56 4.46 2.57z"/><path style="fill:url(#linear-gradient-214)" d="m360.55 373.55 4.43-2.56-4.46-2.57-4.43 2.55 4.46 2.58z"/><path style="fill:url(#linear-gradient-215)" d="m366.78 369.95 4.43-2.56-4.46-2.57-4.43 2.56 4.46 2.57z"/><path style="fill:url(#linear-gradient-216)" d="m405.94 342.19-1.81 1.05-4.42 2.55-1.81 1.04-4.42 2.56-1.81 1.04-4.42 2.56-1.81 1.04-4.42 2.55-1.81 1.05-4.42 2.55-6.23 3.6 4.45 2.57 6.23-3.6 4.43-2.55 1.8-1.04 4.43-2.56 1.8-1.04 4.43-2.56 1.8-1.04 4.43-2.55 1.8-1.04 4.43-2.56 1.8-1.04 2.22-1.28 2.21-1.28-4.45-2.57-2.22 1.28-2.21 1.27z"/><path style="fill:url(#linear-gradient-217)" d="m416.62 341.17 4.43-2.56-4.45-2.57-4.43 2.56 4.45 2.57z"/><path style="fill:url(#linear-gradient-218)" d="m422.85 337.57 4.43-2.55-4.45-2.58-4.43 2.56 4.45 2.57z"/><path style="fill:url(#linear-gradient-219)" d="m429.08 333.98 4.43-2.56-4.45-2.57-4.43 2.55 4.45 2.58z"/><path style="fill:url(#linear-gradient-220)" d="m435.31 330.38 4.43-2.56-4.45-2.57-4.43 2.56 4.45 2.57z"/><path class="cls-20" d="m435 357.1-32.09 18.53a3.41 3.41 0 0 1-3.07.13L383 366.05c-.79-.45-.69-1.25.22-1.77l32.09-18.53a3.41 3.41 0 0 1 3.07-.12l16.81 9.7c.81.45.69 1.25-.19 1.77Z"/><path d="M250.32 368.15A33.63 33.63 0 0 1 262 380.43l-5 2.87a19.18 19.18 0 0 0-6.63-7c-2.41-1.39-4.82-1.73-6.66-.68l-5-8.67c3.16-1.83 7.39-1.24 11.61 1.2Z" style="fill:url(#linear-gradient-221)"/><path d="M257.87 363.76c-4.22-2.44-8.45-3-11.67-1.19l-7.56 4.43c3.23-1.84 7.46-1.25 11.68 1.19A33.63 33.63 0 0 1 262 380.43l7.55-4.39a33.46 33.46 0 0 0-11.68-12.28Z" style="fill:url(#linear-gradient-222)"/><path d="M250.37 348.81c8.54 4.93 17.07 13.59 23.54 24.81l-5 2.87c-5.1-8.83-11.81-15.65-18.53-19.53s-13.44-4.82-18.58-1.89l-5-8.67c6.49-3.71 15.04-2.51 23.57 2.41Z" style="fill:url(#linear-gradient-223)"/><path d="M257.93 344.42c-8.54-4.92-17.08-6.12-23.6-2.41l-7.56 4.39c6.52-3.71 15.07-2.51 23.6 2.41s17.07 13.59 23.54 24.81l7.56-4.39c-6.47-11.23-15-19.88-23.54-24.81Z" style="fill:url(#linear-gradient-224)"/><path d="M250.43 329.47c12.85 7.42 25.68 20.46 35.43 37.35l-5 2.86c-8.37-14.49-19.39-25.69-30.42-32.05s-22.07-7.92-30.49-3.11l-5-8.67c9.77-5.59 22.63-3.79 35.48 3.62Z" style="fill:url(#linear-gradient-225)"/><path d="M258 325.08c-12.84-7.41-25.71-9.21-35.52-3.62l-7.55 4.39c9.81-5.59 22.67-3.79 35.52 3.62s25.68 20.46 35.43 37.35l7.55-4.4c-9.77-16.88-22.6-29.92-35.43-37.34Z" style="fill:url(#linear-gradient-226)"/><path d="M248.11 381.8c1.06-.62 2.54-.53 4.18.41a13 13 0 0 1 5.86 10.15c0 1.86-.66 3.16-1.72 3.77l-3.52 2.05a4.11 4.11 0 0 0 1.71-3.77 12.92 12.92 0 0 0-5.86-10.15c-1.63-.94-3.11-1-4.18-.41Z" style="fill:url(#linear-gradient-227)"/><path d="M248.76 384.26c-3.24-1.87-5.88-.37-5.89 3.36a12.9 12.9 0 0 0 5.86 10.15c3.24 1.88 5.88.37 5.89-3.36a12.92 12.92 0 0 0-5.86-10.15Z" style="fill:url(#linear-gradient-228)"/><path style="fill:url(#linear-gradient-229)" d="m109.61 372.06-10.56-14.21 17.22 2.76-6.66 11.45z"/><path d="M116.27 360.61a3.35 3.35 0 0 0-3.35.33 10.33 10.33 0 0 0-4.68 8.11 3.28 3.28 0 0 0 1.37 3l56.33 32.74a3.28 3.28 0 0 1-1.37-3 10.3 10.3 0 0 1 4.68-8.11 3.31 3.31 0 0 1 3.35-.33Z" style="fill:url(#linear-gradient-230)"/><path d="M169.25 393.68c2.6-1.5 4.71-.3 4.72 2.68a10.32 10.32 0 0 1-4.69 8.11c-2.59 1.5-4.7.3-4.71-2.68a10.3 10.3 0 0 1 4.68-8.11Z" style="fill:url(#linear-gradient-231)"/><path d="m103.79 358.61-4.74-.76 2.87 3.87a6.54 6.54 0 0 0 1.87-3.11Z" style="fill:url(#linear-gradient-232)"/><path d="m168 394.64-56.05-33a10.78 10.78 0 0 0-3.59 6.35l56.38 32.46a10.86 10.86 0 0 1 3.26-5.81Z" style="opacity:.52;fill:url(#linear-gradient-233)"/><path d="m159.88 414.45-52.73 30.64a4.56 4.56 0 0 1-4.16 0L33.54 405a1.46 1.46 0 0 1-.86-1.21v4.74a1.47 1.47 0 0 0 .87 1.21l69.45 40.1a4.62 4.62 0 0 0 4.16 0l52.72-30.64a1.47 1.47 0 0 0 .86-1.2v-4.74a1.44 1.44 0 0 1-.86 1.19Z" style="fill:url(#linear-gradient-234)"/><path d="M159.86 412a1.27 1.27 0 0 1 0 2.41l-52.73 30.64a4.56 4.56 0 0 1-4.16 0L33.54 405a1.27 1.27 0 0 1 0-2.41L86.26 372a4.56 4.56 0 0 1 4.16 0Z" style="fill:url(#linear-gradient-235)"/><path style="fill:url(#linear-gradient-236)" d="m99.55 384.18-45.91 26.51-2.79-1.61 45.91-26.51 2.79 1.61z"/><path style="fill:url(#linear-gradient-237)" d="m106.96 388.46-45.91 26.51-2.78-1.61 45.91-26.51 2.78 1.61z"/><path style="fill:url(#linear-gradient-238)" d="m114.38 392.74-45.91 26.51-2.78-1.61 45.91-26.5 2.78 1.6z"/><path style="fill:url(#linear-gradient-239)" d="m121.8 397.03-45.91 26.5-2.78-1.6 45.91-26.51 2.78 1.61z"/><path style="fill:url(#linear-gradient-240)" d="m129.22 401.31-45.91 26.5-2.79-1.6 45.91-26.51 2.79 1.61z"/><path style="fill:url(#linear-gradient-241)" d="M136.63 405.59 90.72 432.1l-2.78-1.61 45.91-26.5 2.78 1.6z"/><path style="fill:url(#linear-gradient-242)" d="m144.05 409.87-45.91 26.51-2.78-1.61 45.91-26.5 2.78 1.6z"/></g></svg>