<svg width="64" height="54" viewBox="0 0 64 54" fill="none" xmlns="http://www.w3.org/2000/svg">
<path d="M58 0H6C4.4087 0 2.88258 0.632141 1.75736 1.75736C0.632141 2.88258 0 4.4087 0 6L0 48C0 49.5913 0.632141 51.1174 1.75736 52.2426C2.88258 53.3679 4.4087 54 6 54H58C59.5913 54 61.1174 53.3679 62.2426 52.2426C63.3679 51.1174 64 49.5913 64 48V6C64 4.4087 63.3679 2.88258 62.2426 1.75736C61.1174 0.632141 59.5913 0 58 0ZM54 6H58V10H54V6ZM48 6H52V10H48V6ZM42 6H46V10H42V6ZM60 48C60 48.5304 59.7893 49.0391 59.4142 49.4142C59.0391 49.7893 58.5304 50 58 50H6C5.46957 50 4.96086 49.7893 4.58579 49.4142C4.21071 49.0391 4 48.5304 4 48V16H60V48Z" fill="#C48686"/>
<path d="M22.74 20.47L11.54 31.67C11.1827 32.0514 10.9889 32.5575 11 33.08C10.9985 33.3432 11.0489 33.6041 11.1485 33.8478C11.248 34.0915 11.3946 34.3131 11.58 34.5L22.78 45.69L25.61 42.87L15.82 33.08L25.61 23.3L22.74 20.47ZM41.26 20.47L38.43 23.3L48.22 33.08L38.43 42.87L41.26 45.69L52.46 34.5C52.8198 34.1161 53.0138 33.6059 53 33.08C53.0004 32.5519 52.7919 32.045 52.42 31.67L41.26 20.47ZM27.536 45.612L32.537 20.607L36.46 21.391L31.459 46.396L27.536 45.612Z" fill="#C48686"/>
</svg>
